<svg xmlns="http://www.w3.org/2000/svg" xmlns:xlink="http://www.w3.org/1999/xlink" version="1.1" preserveAspectRatio="none" viewBox="0 0 800 600" width="1600" height="1200" style="background:#1c8bbf;">
      <path transform="translate(0, 0)" fill="#ffffff" fill-rule="evenodd" d="M380.2085801355,442.5232864127L382.7548166947,443.056619746L382.7548166947,455.0308132944L382.55481669470004,457.16844770299997L381.9548166947,458.8673724342L380.950515619425,460.1555444772L379.5376123936,461.0437165202L377.69890271615,461.56629716540004L375.417182286,461.7404907138L372.9397629312,461.5770498535L370.5311607807,461.0609208213L370.5311607807,458.8673724342L372.95911776992506,459.41575953097504L375.2537414258,459.5985552299L376.78922529679994,459.49532942345L377.9892252968,459.1856520041L378.88599949035006,458.660920821275L379.511805942,457.8953294234L379.87954787745,456.85661974600004L380.0021285226,455.5297380256L380.0021285226,454.5146842621L379.864494114,454.5146842621L378.987074759175,455.2136089933L377.9548166947,455.7275874879L376.7956769097,456.04371652019995L375.5204080925,456.1490928643L373.91610701725,455.97059824064996L372.4924511033,455.4351143697L371.29245110327497,454.53188856319997L370.376322071,453.2501681331L369.7956769097,451.59210361695L369.6021285226,449.5770498535L369.7268597053938,447.9146842621313L370.10105325377504,446.46307135892505L370.72470916774375,445.2222111438813L371.5978274473,444.192103617L372.71449411399374,443.37920039120627L374.06879518927497,442.798555229925L375.6607306731437,442.45016813315624L377.4903005656,442.3340391009ZM489.4451480841,453.8179100686L494.1677287292,442.5490928643L496.8860082991,442.5490928643L488.7139652884,461.4910283482L485.9870835679,461.4910283482L488.3526749658,456.0372649073L487.6903093744,456.0372649073L481.8838577615,442.5490928643L484.8085889443,442.5490928643ZM388.96939733982504,452.925436950325L389.5693973398,453.344791789L389.930687662375,454.04371652022496L390.0511177699,455.0222111439L389.94789196345,456.3490928643L389.6382145441,457.6630713589L388.5199349742,460.0458670578L386.9457414258,460.0458670578L387.6855263721,458.0071573804L388.0124080925,456.2093079181L387.317784436575,456.050168133125L386.7823005656,455.6931788858L386.44036508172496,455.159845552475L386.3263865871,454.4888778105L386.448967232275,453.7878025417L386.8167091678,453.2501681331L387.395203791425,452.90178103635L388.1500425011,452.7856520041ZM190.2866539735,442.4474799611125L191.5119227907,442.78780254175L192.5619227907,443.3550068428125L193.4366539735,444.1490928643L194.12536365092498,445.16038318688743L194.6172991348,446.37059824065L194.91246042512498,447.77973802558745L195.0108475219,449.3878025417L195.0108475219,450.1103831869L185.2216002101,450.1103831869L185.41944967245,451.43296383205006L185.8581593499,452.4759745847L186.55708408105,453.252318670725L187.5355787047,453.792103617L188.80654644664997,454.108232649225L190.4000948337,454.2136089933L192.22375074769997,454.08027565997503L194.2366539735,453.68027566L194.2366539735,455.7275874879L192.083965801475,456.14694232665L190.0129980596,456.2867272729L188.24686902733123,456.18027565999375L186.716223866025,455.860920821275L185.42106257568122,455.3286627567437L184.3613851563,454.5835014664L183.540955048775,453.61253372449994L182.9549335434,452.4114584557L182.60332064017499,450.98027565999996L182.4861163391,449.3189853374L182.675363650925,447.252318670725L183.2431055864,445.5254369503L184.1678367692,444.1490928643L185.428051823,443.1512434019L187.01084752192497,442.53834017615003L188.8861163391,442.3340391009ZM215.9170385599,442.5490928643L220.5880063019,442.5490928643L220.5880063019,444.768447703L215.9170385599,444.768447703L215.9170385599,450.8931788858L216.101984796475,452.32758748795004L216.6568235062,453.2931788858L217.60521060297498,453.84156598257505L218.9535976997,454.0243616815L219.7621998503,453.9813509288L220.7772536137,453.8093079181L220.7772536137,455.9856520041L218.2568235062,456.2867272729L217.08746866748123,456.21092082128746L216.06542565672498,455.98350146645L215.19069447393122,455.6044692083875L214.4632751191,455.0738240471L213.8949955492,454.38618963847506L213.4890815707,453.54479178900004L213.2455331836,452.549630498675L213.1643503879,451.4007057675L213.1643503879,444.768447703L210.4718772696,444.768447703L210.4718772696,442.5490928643L213.1643503879,442.5490928643L213.6374686675,437.6888778105L215.9170385599,437.6888778105ZM257.5070650585,442.4474799611125L258.7323338757,442.78780254175L259.78233387570003,443.3550068428125L260.6570650585,444.1490928643L261.345774735925,445.16038318688743L261.8377102198,446.37059824065L262.13287151012497,447.77973802558745L262.2312586069,449.3878025417L262.2312586069,450.1103831869L252.4420112951,450.1103831869L252.63986075744998,451.43296383205006L253.0785704349,452.4759745847L253.77749516605002,453.252318670725L254.7559897897,453.792103617L256.02695753165,454.108232649225L257.6205059187,454.2136089933L259.44416183270005,454.08027565997503L261.4570650585,453.68027566L261.4570650585,455.7275874879L259.30437688645,456.14694232665L257.2334091445,456.2867272729L255.46728011227498,456.18027565999375L253.936634951,455.860920821275L252.64147366067502,455.3286627567437L251.5817962413,454.5835014664L250.76136613377503,453.61253372449994L250.1753446284,452.4114584557L249.823731725175,450.98027565999996L249.7065274241,449.3189853374L249.895774735925,447.252318670725L250.4635166714,445.5254369503L251.38824785420002,444.1490928643L252.648462908,443.1512434019L254.231258606925,442.53834017615003L256.1065274241,442.3340391009ZM287.5646672555,442.4474799611125L288.7899360727,442.78780254175L289.83993607269997,443.3550068428125L290.7146672555,444.1490928643L291.40337693292497,445.16038318688743L291.8953124168,446.37059824065L292.19047370712497,447.77973802558745L292.2888608039,449.3878025417L292.2888608039,450.1103831869L282.4996134921,450.1103831869L282.69746295445003,451.43296383205006L283.1361726319,452.4759745847L283.83509736304995,453.252318670725L284.8135919867,453.792103617L286.08455972859997,454.108232649225L287.6781081157,454.2136089933L289.5017640297,454.08027565997503L291.5146672555,453.68027566L291.5146672555,455.7275874879L289.36197908345,456.14694232665L287.2910113415,456.2867272729L285.52488230923746,456.18027565999375L283.99423714795,455.860920821275L282.69907585763747,455.3286627567437L281.6393984383,454.5835014664L280.8189683307751,453.61253372449994L280.2329468254,452.4114584557L279.88133392217503,450.98027565999996L279.7641296211,449.3189853374L279.953376932925,447.252318670725L280.5211188684,445.5254369503L281.4458500512,444.1490928643L282.706065105,443.1512434019L284.288860803925,442.53834017615003L286.1641296211,442.3340391009ZM469.5218411564,442.5490928643L474.1928088983,442.5490928643L474.1928088983,444.768447703L469.5218411564,444.768447703L469.5218411564,450.8931788858L469.706787392975,452.32758748795004L470.2616261027,453.2931788858L471.210013199425,453.84156598257505L472.5584002962,454.0243616815L473.3670024467,453.9813509288L474.3820562102,453.8093079181L474.3820562102,455.9856520041L471.8616261027,456.2867272729L470.69227126398124,456.21092082128746L469.670228253225,455.98350146645L468.7954970704313,455.6044692083875L468.0680777156,455.0738240471L467.49979814569997,454.38618963847506L467.09388416720003,453.54479178900004L466.85033578010007,452.549630498675L466.7691529844,451.4007057675L466.7691529844,444.768447703L464.0766798661,444.768447703L464.0766798661,442.5490928643L466.7691529844,442.5490928643L467.2422712639,437.6888778105L469.5218411564,437.6888778105ZM529.8667489759625,442.44371652024995L531.21029736305,442.77274877829996L532.3742758576625,443.32113587504995L533.3586844598,444.0888778105L534.1377167178687,445.07221114384373L534.694168330775,446.26737243417494L535.0280392985187,447.6743616814937L535.1393296211,449.2931788858L534.928576932925,451.3878025417L534.2963188684,453.1297380256L533.2812651049501,454.50393157394996L531.92212532,455.4953294234L530.26191026625,456.088877810525L528.3436306964,456.2867272729L526.4124479006499,456.091028348175L524.7479317716,455.503931574L523.3887919866751,454.52758748792496L522.3737382233,453.1641466277L521.7479317716501,451.41360899332506L521.5393296211,449.2931788858L521.745781234,447.1942541546L522.3651360727,445.456619746L523.3651360727,444.0931788858L524.7135231695,443.1168347998L526.382340373825,442.52973802562497L528.3436306964,442.3340391009ZM578.4810672555,442.4474799611125L579.7063360727,442.78780254175L580.7563360727002,443.3550068428125L581.6310672555,444.1490928643L582.3197769329252,445.16038318688743L582.8117124168001,446.37059824065L583.1068737071251,447.77973802558745L583.2052608039,449.3878025417L583.2052608039,450.1103831869L573.4160134921,450.1103831869L573.61386295445,451.43296383205006L574.0525726319,452.4759745847L574.75149736305,453.252318670725L575.7299919867,453.792103617L577.0009597286,454.108232649225L578.5945081157,454.2136089933L580.4181640296999,454.08027565997503L582.4310672555,453.68027566L582.4310672555,455.7275874879L580.2783790834501,456.14694232665L578.2074113415,456.2867272729L576.4412823092375,456.18027565999375L574.91063714795,455.860920821275L573.6154758576375,455.3286627567437L572.5557984383,454.5835014664L571.735368330775,453.61253372449994L571.1493468254001,452.4114584557L570.7977339221751,450.98027565999996L570.6805296211,449.3189853374L570.869776932925,447.252318670725L571.4375188684,445.5254369503L572.3622500512001,444.1490928643L573.622465105,443.1512434019L575.2052608039251,442.53834017615003L577.0805296211,442.3340391009ZM594.8960134920751,442.439415444975L596.519669406,442.7555444772L596.519669406,444.9490928643L594.919669406,444.656619746L593.3626801587,444.5533939396L592.172357578075,444.6248993159438L591.1476263953,444.83941544497503L590.288486610375,445.19694232669383L589.5949382233,445.6974799611L589.0605296211249,446.3469423266625L588.6788091909999,447.15984555245L588.4497769329249,448.1361896384625L588.3734328469,449.2759745847L588.4460134920625,450.4248993159L588.66375542755,451.4114584557L589.0266586533626,452.23565200409996L589.5347231695,452.8974799611L590.1852608039126,453.40930791808125L590.97558338455,453.77489931592504L591.9056909114124,453.9942541546313L592.9755833845,454.0673724342L594.6013898362,453.921135875L596.519669406,453.4738240471L596.519669406,455.6673724342L594.687411341525,456.131888563225L592.7003145673,456.2867272729L591.0621425243063,456.1765122191375L589.631497363025,455.84586705785L588.4083790834562,455.2947917890375L587.3927876856,454.5232864127L586.5911747823812,453.5367272729187L586.018594137225,452.340490713775L585.6750457501313,450.93457673526876L585.5605296211,449.3189853374L585.6809597286251,447.69586705784377L586.0422500512001,446.284576735275L586.644400588825,445.08511436969377L587.4874113415,444.0974799611L588.5621425243249,443.32597458476255L589.8594543523,442.77489931595005L591.379346825425,442.4442541546625L593.1218199437,442.3340391009ZM603.2682434533,442.5490928643L607.9392111952,442.5490928643L607.9392111952,444.768447703L603.2682434533,444.768447703L603.2682434533,450.8931788858L603.45318968985,452.32758748795004L604.0080283995,453.2931788858L604.9564154962999,453.84156598257505L606.3048025931,454.0243616815L607.1134047436,453.9813509288L608.128458507,453.8093079181L608.128458507,455.9856520041L605.6080283995,456.2867272729L604.4386735607814,456.21092082128746L603.416630550025,455.98350146645L602.5418993672313,455.6044692083875L601.8144800124,455.0738240471L601.2462004425001,454.38618963847506L600.840286464,453.54479178900004L600.5967380769,452.549630498675L600.5155552812,451.4007057675L600.5155552812,444.768447703L597.823082163,444.768447703L597.823082163,442.5490928643L600.5155552812,442.5490928643L600.9886735608,437.6888778105L603.2682434533,437.6888778105ZM617.3922664566,442.4474799611125L618.6175352738001,442.78780254175L619.6675352738,443.3550068428125L620.5422664566,444.1490928643L621.230976134025,445.16038318688743L621.7229116179,446.37059824065L622.018072908225,447.77973802558745L622.116460005,449.3878025417L622.116460005,450.1103831869L612.3272126932,450.1103831869L612.5250621555501,451.43296383205006L612.963771833,452.4759745847L613.6626965641501,453.252318670725L614.6411911878,453.792103617L615.9121589297499,454.108232649225L617.5057073168,454.2136089933L619.3293632308,454.08027565997503L621.3422664566,453.68027566L621.3422664566,455.7275874879L619.189578284575,456.14694232665L617.1186105427,456.2867272729L615.3524815104313,456.18027565999375L613.8218363491251,455.860920821275L612.5266750587813,455.3286627567437L611.4669976394,454.5835014664L610.646567531875,453.61253372449994L610.0605460265,452.4114584557L609.7089331232751,450.98027565999996L609.5917288222,449.3189853374L609.7809761340251,447.252318670725L610.3487180695,445.5254369503L611.2734492523,444.1490928643L612.5336643061,443.1512434019L614.1164600050251,442.53834017615003L615.9917288222,442.3340391009ZM409.68658873765,437.60715738045L411.9833629312,438.0845767353L411.9833629312,440.3727487783L409.6779865871,439.8738240471L407.2263736839,439.6931788858L405.12637368390006,439.87758748795L403.6263736839,440.4308132944L402.7263736839,441.35285630515L402.4263736839,442.6437165202L402.505943576375,443.39210361700003L402.7446532538,444.0028563052L403.172610243025,444.49963049869996L403.8027177699,444.90608211159997L404.669384436575,445.23726490727495L405.8070188452,445.5254369503L407.0457285226,445.7576950148L408.93390056565,446.23726490727495L410.4177715334,446.8501681331L411.5252984151,447.607157380425L412.2844382,448.5189853374L412.71669626450006,449.60715738042495L412.860782286,450.8759745847L412.64142744730003,452.456619746025L411.9833629312,453.792103617L410.90379303875,454.86092082130006L409.419922071,455.6415659826L407.57691131832496,456.1125337245L405.4027177699,456.2695229718L402.594115619375,456.06307135889995L399.9833629312,455.4437165202L399.9833629312,453.1641466277L402.7016425011,453.8093079181L405.4371263721,454.0243616815L407.512395189275,453.835114369675L408.955405942,453.2673724342L409.79411561942504,452.321135875025L410.0736855119,451.0136089933L409.98336293125,450.258770283625L409.7123951893,449.6458670578L409.232825296825,449.14909286430003L408.5339005656,448.7426412514L407.5833629312,448.40930791802504L406.331750028,448.1146842621L405.0930403506,447.8652218966L403.7623951893063,447.543178885825L402.626373683925,447.1361896385L401.6849758344563,446.644254154625L400.9382016409,446.0673724342L399.957556479625,444.62006060625L399.6306747592,442.7555444772L399.75056723231876,441.5625337245L400.11024465167503,440.51253372450003L400.7097070172688,439.60554447719994L401.5489543291,438.8415659826L402.62045970544375,438.23188856324373L403.91669626457497,437.79640469227496L405.4376640064937,437.53511436969376L407.1833629312,437.4480175955ZM517.9202620626,437.5856520041L520.1396169013,438.0243616815L520.1396169013,440.3383401761L517.971874965775,439.91898533742506L515.735315826,439.7792003912L514.0374663636501,439.8861896385125L512.5654233529001,440.20715738045004L511.31918679375,440.74210361701256L510.2987566862,441.4910283482L509.5046706647125,442.4679100686312L508.93746636364995,443.686727272925L508.5971437830125,445.1474799610812L508.4837029228,446.8501681331L508.5955308797875,448.59210361698126L508.93101475074997,450.07597458472503L509.49015453568745,451.30178103633125L510.2729502346,452.2695229718L511.27295023458737,452.99963049868126L512.4837029227499,453.521135875025L513.9052082990875,453.8340391008312L515.5374663636,453.9383401761L517.8600470088,453.7835014664L520.1396169013,453.2501681331L520.1396169013,455.5813509288L517.8385416324751,456.09747996105L515.3740255034,456.2695229718L513.1476814174,456.12758748793124L511.1912298045,455.701781036325L509.50467066470003,454.99210361698124L508.088003998,453.9985552299L506.97026206255,452.70016813311247L506.17187496580004,451.08457673525004L505.69284270775,449.1517810363125L505.5331652884,446.9017810363L505.8277889443,444.0372649073L506.711659912,441.6716735095L508.154670664725,439.82221114387494L510.1267136755,438.5060821116L512.6084341056,437.712533724525L515.5632728153,437.4480175955ZM446.718451103275,442.46092082132503L448.2517844366,442.8415659826L449.42597798500003,443.506082111625L450.2646876624,444.5017810363L450.767913468825,445.88027566000005L450.9356554043,447.6759745847L450.9356554043,456.0372649073L448.6302790602,456.0372649073L448.4324295979,454.5835014664L448.2775908882,454.5835014664L447.4216769097,455.293178885775L446.3679134688,455.8222111439L445.178666157,456.15124340194996L443.9163005656,456.2609208213L442.535655404325,456.144791789025L441.3700640065,455.7964046922L440.4453328237,455.23726490727495L439.7700640065,454.4888778105L439.363612393575,453.5705982406L439.2281285226,452.5017810363L439.563612393575,450.90823264925L440.5700640065,449.7232864127L441.3442575548812,449.274361681525L442.316300565625,448.91683479980003L443.48619303873124,448.65070576752504L444.8539349742,448.4759745847L448.225977985,448.1404907138L448.225977985,447.4953294234L448.124902716175,446.43296383202505L447.8216769097,445.6372649073L447.30554787744995,445.065221896575L446.5829672323,444.6910283482L445.6281285226,444.4845767353L444.3980209957,444.415759531L442.3593113183,444.5792003912L440.2603865871,445.0609208213L440.2603865871,443.0050068428L442.4539349742,442.5060821116L444.7851177699,442.3340391009ZM637.6244169943,456.0372649073L635.3104384996,456.0372649073L635.1469976394,454.5232864127L635.0007610803,454.5232864127L634.1147395749,455.252318670775L633.0738793599,455.8050068428L631.908287962025,456.146942326675L630.6308686072,456.2609208213L628.929793338375,456.08242619764997L627.4394707577,455.5469423267L626.2029116179,454.6372649073L625.2631266717,453.3361896385L624.6695782845751,451.65231867075005L624.4717288222,449.5770498535L624.5943094673626,447.91038318683746L624.9620514028501,446.45446920835L625.5749546286626,445.2093079180375L626.4330191448,444.1748993159L627.5254922630751,443.36575953094996L628.8330191448001,442.7878025417L630.355599789975,442.44102834815L632.0932341986,442.3254369503L634.8717288222,442.5576950148L634.8717288222,436.0028563052L637.6244169943,436.0028563052ZM176.2749808553,452.1662971654L176.2749808553,437.6888778105L178.9244432208,437.6888778105L178.9244432208,456.0372649073L176.0771313929,456.0372649073L165.247023866,441.5512434019L165.247023866,456.0372649073L162.5975615004,456.0372649073L162.5975615004,437.6888778105L165.4448733284,437.6888778105ZM203.1084639204,447.392103617L207.022442415,442.5490928643L210.0848080064,442.5490928643L204.6826574688,449.2071573804L210.2482488666,456.0372649073L207.0912596193,456.0372649073L203.0482488666,451.056619746L198.9880338128,456.0372649073L195.8998617698,456.0372649073L201.4310445655,449.2415659826L196.0116897268,442.5490928643L199.1772811247,442.5490928643ZM238.6114695662,453.7662971654L248.7017921469,453.7662971654L248.7017921469,456.0372649073L235.807168491,456.0372649073L235.807168491,437.6888778105L238.6114695662,437.6888778105ZM270.9963650817,453.7060821116L275.6673328237,442.5490928643L278.3856123936,442.5490928643L272.5705586301,456.0372649073L269.1899134688,456.0372649073L263.3834618559,442.5490928643L266.3081930387,442.5490928643ZM298.1538070405,456.0372649073L295.4011188684,456.0372649073L295.4011188684,436.0028563052L298.1538070405,436.0028563052ZM312.2426758577,453.7662971654L322.3329984383,453.7662971654L322.3329984383,456.0372649073L309.4383747824,456.0372649073L309.4383747824,437.6888778105L312.2426758577,437.6888778105ZM327.492205942,456.0372649073L324.7395177699,456.0372649073L324.7395177699,442.5490928643L327.492205942,442.5490928643ZM337.3735650817,453.7060821116L342.0445328237,442.5490928643L344.7628123936,442.5490928643L338.9477586301,456.0372649073L335.5671134688,456.0372649073L329.7606618559,442.5490928643L332.6853930387,442.5490928643ZM349.787405942,456.0372649073L347.0347177699,456.0372649073L347.0347177699,442.5490928643L349.787405942,442.5490928643ZM362.42414142584374,442.41683479981873L363.438657554875,442.66522189657496L364.32091561939376,443.0792003911687L365.0709156194,443.6587702836L365.6693027161813,444.417910068575L366.096722071025,445.3619960901L366.35317368393123,446.491028348175L366.4386575549,447.8050068428L366.4386575549,456.0372649073L363.6859693828,456.0372649073L363.6859693828,447.9168347998L363.490270458075,446.43296383202505L362.9031736839,445.4394154449L361.93973282369996,444.87812512237497L360.6150016409,444.6910283482L359.537582286025,444.79210361699995L358.473066157,445.0953294234L357.4838188452,445.60285630515L356.632205942,446.3168347998L356.632205942,456.0372649073L353.8795177699,456.0372649073L353.8795177699,442.5490928643L356.1590876624,442.5490928643L356.3311306731,444.0200606062L356.4945715334,444.0200606062L357.52037798497497,443.303931573975L358.6881199205,442.7727487783L359.95478658715,442.44371652024995L361.2773672323,442.3340391009ZM432.3739134688437,442.4162971654125L433.307246802175,442.66307135895L434.1201500279937,443.0743616815125L434.8126231463,443.6501681331L435.36584895273757,444.39963049870624L435.76101024305,445.331888563225L435.9981070172375,446.44694232665626L436.0771392753,447.744791789L436.0771392753,456.0372649073L433.3244511033,456.0372649073L433.3244511033,447.8738240471L433.1502575549,446.4179100686L432.62767690969997,445.4394154449L431.780365081725,444.87812512237497L430.649182286,444.6910283482L428.8513328237,445.0609208213L428.03842959789995,445.527587487975L427.3373543291,446.2050068428L427.449182286,447.7189853374L427.449182286,456.0372649073L424.7481070172,456.0372649073L424.7481070172,447.8738240471L424.580365081725,446.411458455675L424.0771392753,445.4308132944L423.2642360495,444.87597458475L422.1502575549,444.6910283482L421.201870458125,444.796404692275L420.2835908882,445.1125337245L419.4513328237,445.63726490732495L418.743805942,446.368447703L418.743805942,456.0372649073L415.9911177699,456.0372649073L415.9911177699,442.5490928643L418.2706876624,442.5490928643L418.4427306731,444.0200606062L418.6061715334,444.0200606062L419.49434357637506,443.299630498725L420.5244511033,442.7727487783L421.67283820002507,442.44371652024995L422.8986446516,442.3340391009L424.09434357635,442.452318670775L425.1352037914,442.8071573804L425.99971992042504,443.40715738042496L426.6663865871,444.2609208213L427.73950486667496,443.38995307934994L428.8943435764,442.7899530793L430.10294572690003,442.44801759549995L431.320150028,442.3340391009ZM463.1623951893,442.5232864127L463.1623951893,444.992103617L461.6742231463,444.88027566L460.573147877475,444.985652004075L459.4548683076,445.3017810363L458.4247607807,445.8243616815L457.605405942,446.5490928643L457.605405942,456.0372649073L454.8527177699,456.0372649073L454.8527177699,442.5490928643L457.1236855119,442.5490928643L457.3301371248,444.2695229718L457.493577985,444.2695229718L458.332287662425,443.4867272729L459.3860511033,442.8931788858L460.5688468022,442.5189853374L461.8118575549,442.3942541546ZM479.6154018475,456.0372649073L476.8627136755,456.0372649073L476.8627136755,436.0028563052L479.6154018475,436.0028563052ZM547.0229425243438,442.41683479981873L548.0374586533749,442.66522189657496L548.9197167178937,443.0792003911687L549.6697167179,443.6587702836L550.2681038146812,444.417910068575L550.695523169525,445.3619960901L550.9519747824313,446.491028348175L551.0374586534,447.8050068428L551.0374586534,456.0372649073L548.2847704813,456.0372649073L548.2847704813,447.9168347998L548.089071556575,446.43296383202505L547.5019747824,445.4394154449L546.5385339221999,444.87812512237497L545.2138027394,444.6910283482L544.1363833845251,444.79210361699995L543.0718672555,445.0953294234L542.0826199437,445.60285630515L541.2310070405,446.3168347998L541.2310070405,456.0372649073L538.4783188684,456.0372649073L538.4783188684,442.5490928643L540.7578887609,442.5490928643L540.9299317716,444.0200606062L541.0933726319,444.0200606062L542.119179083475,443.303931573975L543.286921019,442.7727487783L544.55358768565,442.44371652024995L545.8761683308,442.3340391009ZM563.5025425243437,442.41683479981873L564.517058653375,442.66522189657496L565.3993167178937,443.0792003911687L566.1493167179,443.6587702836L566.7477038146812,444.417910068575L567.175123169525,445.3619960901L567.4315747824312,446.491028348175L567.5170586534,447.8050068428L567.5170586534,456.0372649073L564.7643704813,456.0372649073L564.7643704813,447.9168347998L564.568671556575,446.43296383202505L563.9815747824,445.4394154449L563.0181339221999,444.87812512237497L561.6934027394,444.6910283482L560.615983384525,444.79210361699995L559.5514672555,445.0953294234L558.5622199437,445.60285630515L557.7106070405,446.3168347998L557.7106070405,456.0372649073L554.9579188684,456.0372649073L554.9579188684,442.5490928643L557.2374887609,442.5490928643L557.4095317716,444.0200606062L557.5729726319,444.0200606062L558.5987790834749,443.303931573975L559.766521019,442.7727487783L561.0331876856499,442.44371652024995L562.3557683308,442.3340391009ZM445.0689887377,450.0845767353L443.65393497419996,450.35769501485004L442.7119994903,450.7985552299L442.18296723230003,451.43511436967503L442.0066231463,452.2953294234L442.17006400649996,453.164146627725L442.6603865871,453.8093079181L443.48834357634996,454.21575953095L444.6474833613,454.3512434019L446.5657629312,453.9985552299L447.4453328237,453.55769501482496L448.225977985,452.9404907138L448.225977985,449.7748993159ZM526.616748975925,444.80285630515L525.3414801587,445.6544692084L524.88234037375,446.30984555248125L524.5543833844999,447.131888563225L524.3576091909499,448.12059824063124L524.2920177931,449.2759745847L524.5452435995562,451.38726490727504L525.3049210189249,452.8953294234L526.5710500512062,453.800168133075L528.3436306964,454.1017810363L530.1124479007063,453.8017810363L531.375888760925,452.9017810363L532.1339532770562,451.4017810363L532.3866414491,449.3017810363L532.3215876856563,448.142103616975L532.126426395325,447.14909286430003L531.8011575781062,446.322748778275L531.345781234,445.6630713589L530.0748134920999,444.805006842775L528.3436306964,444.5189853374ZM631.0432341985938,444.5426412514062L630.017965381375,444.768447703025L629.1550621555438,445.1447917890562L628.4545245211,445.6716735095L627.916352478125,446.3539315739875L627.531943876,447.19640469225L627.301298714725,448.1990928642875L627.2244169943,449.3619960901L627.4787180695687,451.3942541546062L628.241621295375,452.845867057825L629.5131266717187,453.7168347997562L631.2932341986,454.0071573804L633.2631266717,453.6286627568L634.129793338325,453.14049071374995L634.8717288222,452.432963832L634.8717288222,444.768447703L632.2308686072,444.4673724342ZM376.0994403505563,444.55930791809374L375.109655404325,444.783501466475L374.27148336130625,445.1571573804438L373.5849242215,445.68027566L373.046752178525,446.3609208213L372.6623435764,447.1985552299L372.43169841512497,448.19317888579997L372.3548166947,449.344791789L372.422020995775,450.45823264923126L372.62363389899997,451.407157380425L372.95965540437504,452.1915659825812L373.4300855119,452.8114584557L374.69890271615,453.624361681475L376.3720209957,453.8953294234L378.3505156194,453.5426412514L379.23653712475004,453.088877810525L380.0021285226,452.4501681331L380.0021285226,444.8028563052L378.688150028,444.564146627775L377.2408382,444.4845767353ZM231.5536330071,450.1878025417L223.0116975232,450.1878025417L223.0116975232,447.8996304987L231.5536330071,447.8996304987ZM187.316223866,444.4200606062L186.1936432208,445.2071573804L185.48826687675,446.542641251375L185.2129980596,448.4501681331L192.4216002101,448.4501681331L192.159234618725,446.542641251375L191.475363651,445.2071573804L190.36998730685,444.4200606062L188.8431055864,444.1576950148ZM254.536634951,444.4200606062L253.4140543058,445.2071573804L252.70867796172502,446.542641251375L252.4334091445,448.4501681331L259.6420112951,448.4501681331L259.3796457037,446.542641251375L258.6957747359,445.2071573804L257.59039839182503,444.4200606062L256.0635166714,444.1576950148ZM284.59423714795,444.4200606062L283.4716565028,445.2071573804L282.766280158725,446.542641251375L282.4910113415,448.4501681331L289.6996134921,448.4501681331L289.43724790065005,446.542641251375L288.7533769329,445.2071573804L287.64800058882497,444.4200606062L286.1211188684,444.1576950148ZM575.51063714795,444.4200606062L574.3880565028,445.2071573804L573.682680158725,446.542641251375L573.4074113415,448.4501681331L580.6160134921,448.4501681331L580.35364790065,446.542641251375L579.6697769329,445.2071573804L578.564400588825,444.4200606062L577.0375188684,444.1576950148ZM614.4218363491,444.4200606062L613.2992557039,445.2071573804L612.59387935985,446.542641251375L612.3186105427,448.4501681331L619.5272126932,448.4501681331L619.2648471018001,446.542641251375L618.580976134,445.2071573804L617.4755997899251,444.4200606062L615.9487180695,444.1576950148ZM326.88790486669996,437.0136089933L327.4491951893,437.3103831869L327.784679060225,437.783501466475L327.8965070172,438.4286627568L327.784679060225,439.06522189655L327.4491951893,439.5297380256L326.88790486669996,439.82006060624997L326.1158618559,439.9168347998L325.343818845175,439.82006060624997L324.7825285226,439.5297380256L324.44059303872496,439.06522189655L324.3266145441,438.4286627568L324.44059303872496,437.783501466475L324.7825285226,437.3103831869L325.343818845175,437.0136089933L326.1158618559,436.9146842621ZM349.1831048667,437.0136089933L349.7443951893,437.3103831869L350.07987906022504,437.783501466475L350.1917070172,438.4286627568L350.07987906022504,439.06522189655L349.7443951893,439.5297380256L349.1831048667,439.82006060624997L348.4110618559,439.9168347998L347.63901884517503,439.82006060624997L347.0777285226,439.5297380256L346.735793038725,439.06522189655L346.6218145441,438.4286627568L346.735793038725,437.783501466475L347.0777285226,437.3103831869L347.63901884517503,437.0136089933L348.4110618559,436.9146842621ZM558.6714923817046,370.2648905877875L560.9784816290188,370.48747123295L563.1360085107422,370.85843897488746L565.144073026875,371.37779381359996L567.0026751774172,372.04553574908743L568.7118149623689,372.86166478135L570.2714923817298,373.8261809103875L571.6817074355,374.9390841362L572.933723564539,376.2048099426562L574.0188042097063,377.627793813625L574.9369493710017,379.2080357491063L575.688159048425,380.94553574910003L576.2724332419766,382.8402938136063L576.6897719516562,384.89230994262505L576.940175177464,387.1015841361563L577.0236429194,389.4681163942L577.0236429194,391.8423099426L549.3763310914,391.8423099426L549.4876214139813,393.71112714693123L549.821492381725,395.33478306092496L550.3779439946313,396.71327768458127L551.1569762527,397.8466110179L552.1757934570062,398.7310196200312L553.451599908625,399.36274005012496L554.9843956075563,399.7417723081812L556.7741805538,399.8681163942L558.4048257150937,399.77671854474374L559.804288080675,399.502524996375L560.9725676505437,399.0455357490937L561.9096644247,398.4057508029L562.6284816290063,397.60951424373127L563.1419224892251,396.69177230822504L563.4499870053562,395.6525249963812L563.5526751774,394.4917723082L577.0236429194,394.4917723082L576.7053633495062,397.6627400501562L575.750524639825,400.46596585662496L574.1591267903563,402.90144972760623L571.9311698011,404.9691916631L569.088696682825,406.6175787598812L565.6623525968,407.794998114725L561.652137543025,408.5014497276312L557.0580515215,408.7369335986L554.5624870053798,408.66220241580316L552.2112773279688,408.4380088674125L550.0044224892672,408.06435295342817L547.9419224892749,407.54123467385L546.0237773279921,406.8686540286782L544.2499870054187,406.04661101791254L542.6205515215547,405.0751056415532L541.1354708764,403.9541378996L539.8088579731657,402.68155725444376L538.6591267903625,401.25521316842503L537.6862773279906,399.67510564154384L536.8903095860501,397.94123467380007L536.2712235645406,396.0536002651938L535.8290192634624,394.012202415725L535.5636966828157,391.81704112539376L535.4752558226,389.4681163942L535.5615461451813,387.1659658565766L535.820417112925,385.0079013404563L536.2518687258313,382.9939228458391L536.8559009839,381.12403037272503L537.6325138871313,379.39822392111404L538.581707435525,377.8165034910063L539.7034816290812,376.3788690824016L540.9978364678,375.0853206953L542.4417880806968,373.93814327594845L544.0166536720874,372.94392284584376L545.7224332419718,372.10265940498596L547.55912679035,371.414352953375L549.5267343172219,370.87900349101096L551.6252558225875,370.49661101789377L553.854691306447,370.2671755340234L556.2150407688,370.1906970394ZM442.1675698011094,370.26771316843275L444.40036550003754,370.4987615555312L446.50305367208443,370.88384220069526L448.47563431725,371.42295510392495L450.3181074355344,372.11610026522027L452.0304730269375,372.9632776845812L453.6127310914594,373.9644873620078L455.0648816291,375.1197292975L456.36528485488907,376.4202669319015L457.49230098390626,377.8616647813562L458.4459300161516,379.44392284586405L459.226171951625,381.167041125425L459.8330267903266,383.03101962003905L460.2664945322563,385.03585832970623L460.5265751774141,387.1815572544266L460.6132687258,389.4681163942L460.5265751774141,391.7546755339969L460.2664945322563,393.9003744587375L459.8330267903266,395.9052131684219L459.226171951625,397.76919166305L458.4459300161516,399.4923099426219L457.49230098390626,401.0745680071375L456.36528485488907,402.51596585659695L455.0648816291,403.816503491L453.6127310914594,404.96972929746875L452.0304730269375,405.969191663075L450.3181074355344,406.8148905878187L448.47563431725,407.5068260717L446.50305367208443,408.04499811471874L444.40036550003754,408.429406716875L442.1675698011094,408.6600518781687L439.8046665753,408.7369335986L437.4443171129235,408.6605895125781L435.2148816290438,408.4315572545125L433.116360123661,408.04983682440314L431.148752596775,407.51542822225L429.31205904838595,406.8283314480531L427.6062794784938,405.9885465018125L426.03141388709844,404.99607338352814L424.5874622742,403.8509120932L423.2931074355047,402.5573637060969L422.1713332419688,401.11972929748754L421.2221396935922,399.5380088673719L420.445526790375,397.81220241575L419.8414945323172,395.94230994262193L419.4100429194188,393.9283314479876L419.1511719516797,391.7702669318469L419.0648816291,389.4681163942L419.1511719516797,387.1659658565766L419.4100429194188,385.0079013404563L419.8414945323172,382.9939228458391L420.445526790375,381.12403037272503L421.2221396935922,379.39822392111404L422.1713332419688,377.8165034910063L423.2931074355047,376.3788690824016L424.5874622742,375.0853206953L426.03141388709844,373.93814327594845L427.6062794784938,372.94392284584376L429.31205904838595,372.10265940498596L431.148752596775,371.414352953375L433.116360123661,370.87900349101096L435.2148816290438,370.49661101789377L437.4443171129235,370.2671755340234L439.8046665753,370.1906970394ZM304.3422986979032,370.2648905877875L306.6492879452125,370.48747123295L308.80681482692813,370.85843897488746L310.81487934305,371.37779381359996L312.6734814935782,372.04553574908743L314.38262127851254,372.86166478135L315.9422986978532,373.8261809103875L317.3525137516,374.9390841362L318.604529880639,376.2048099426562L319.6896105258062,377.627793813625L320.6077556871015,379.2080357491063L321.3589653645249,380.94553574910003L321.9432395580765,382.8402938136063L322.36057826775624,384.89230994262505L322.61098149356405,387.1015841361563L322.6944492355,389.4681163942L322.6944492355,391.8423099426L295.0471374075,391.8423099426L295.15842773008126,393.71112714693123L295.492298697825,395.33478306092496L296.04875031073124,396.71327768458127L296.8277825688,397.8466110179L297.8465997731063,398.7310196200312L299.122406224725,399.36274005012496L300.6552019236563,399.7417723081812L302.4449868699,399.8681163942L304.0756320312,399.77671854474374L305.47509439679993,399.502524996375L306.6433739667,399.0455357490937L307.5804707409,398.4057508029L308.29928794520623,397.60951424373127L308.81272880542497,396.69177230822504L309.1207933215562,395.6525249963812L309.2234814936,394.4917723082L322.6944492355,394.4917723082L322.37616966560626,397.6627400501562L321.421330955925,400.46596585662496L319.8299331064563,402.90144972760623L317.6019761172,404.9691916631L314.75950299893134,406.6175787598812L311.333158912925,407.794998114725L307.32294385918124,408.5014497276312L302.7288578377,408.7369335986L300.23329332155623,408.66220241580316L297.882083644125,408.4380088674125L295.6752288054063,408.06435295342817L293.6127288054,407.54123467385L291.6945836441063,406.8686540286782L289.92079332152497,406.04661101791254L288.2913578376562,405.0751056415532L286.8062771925,403.9541378996L285.4796642892656,402.68155725444376L284.3299331064625,401.25521316842503L283.3570836440906,399.67510564154384L282.56111590215,397.94123467380007L281.94202988064063,396.0536002651938L281.49982557956247,394.012202415725L281.2345029989156,391.81704112539376L281.1460621387,389.4681163942L281.23235246128127,387.1659658565766L281.491223429025,385.0079013404563L281.92267504193126,382.9939228458391L282.5267073,381.12403037272503L283.30332020323124,379.39822392111404L284.252513751625,377.8165034910063L285.3742879451812,376.3788690824016L286.6686427839,375.0853206953L288.11259439679844,373.93814327594845L289.6874599881937,372.94392284584376L291.3932395580859,372.10265940498596L293.22993310647496,371.414352953375L295.197540633361,370.87900349101096L297.29606213874376,370.49661101789377L299.52549762262345,370.2671755340234L301.885847085,370.1906970394ZM519.2193418441125,370.4154282221937L521.77203001615,371.089621770575L523.9333203387125,372.21327768454375L525.7032128118,373.7863959641L527.0768687258061,375.77456800713753L528.0580515215249,378.14338521145L528.6467611989561,380.8928475770375L528.8429977581,384.0229551039L528.8429977581,407.9025249964L514.9505246398,407.9025249964L514.9505246398,385.6917723082L514.6623525968001,383.55413789960005L513.7978364678,381.8896217706L513.1623525968064,381.2648905877812L512.408589155925,380.81865402862496L511.5365461451563,380.5509120931312L510.5462235645,380.4616647813L509.3811698010562,380.5659658565687L508.329019263425,380.878869082375L507.38977195160624,381.4003744587187L506.5634278656,382.1304819856L505.8935353924812,383.0170411254125L505.415040768825,383.99929918995L505.1279439946312,385.0772561792125L505.0322450699,386.2509120932L505.0322450699,407.9025249964L491.1311698011,407.9025249964L491.1311698011,385.6917723082L490.84299775809995,383.55413789960005L489.9784816291,381.8896217706L489.3435353925188,381.2648905877812L488.591384854875,380.81865402862496L487.72203001616873,380.5509120931312L486.7354708764,380.4616647813L485.57041711295005,380.5659658565687L484.5182665753,380.878869082375L483.57901926345005,381.4003744587187L482.7526751774,382.1304819856L482.08278270428127,383.0170411254125L481.604288080625,383.99929918995L481.31719130643125,385.0772561792125L481.2214923817,386.2509120932L481.2214923817,407.9025249964L467.3204171129,407.9025249964L467.3204171129,371.0337077921L478.7010622742,371.0337077921L479.6128902312,376.5476862867L480.743535392475,375.15736370606874L482.04514829569996,373.919729297475L483.517728940875,372.83478306091877L485.161277328,371.9025249964L486.91450313443744,371.15360026521256L488.71611603764995,370.61865402865004L490.56611603763747,370.2976862867125L492.4645031344,370.1906970394L494.4567074354859,370.2900249963891L496.2784816290437,370.5880088673562L497.9298257150734,371.08464865230155L499.410739693575,371.77994435122497L500.72122356454844,372.6738959641266L501.8612773279938,373.76650349100623L502.8309009839109,375.0577669318641L503.6300945323,376.5476862867L504.7903095860688,375.15736370606874L506.103212811875,373.919729297475L507.5688042097188,372.83478306091877L509.1870837796,371.9025249964L510.90106227421256,371.15360026521256L512.6537504462501,370.61865402865004L514.4451482957124,370.2976862867125L516.2752558226,370.1906970394ZM388.0652601237,374.8702669319L390.486765500025,372.88747123297503L393.2953676506,371.4122024158L396.36848593015003,370.4960733835L399.5835396936,370.1906970394L402.59536765058124,370.41327768456244L405.205045069925,371.08101962005003L407.41257195163126,372.1939228458625L409.2179482957,373.751987362L410.6254751774312,375.72940671684376L411.63085152152496,378.10037445877504L412.23407732798125,380.86489058779375L412.4351525968,384.0229551039L412.4351525968,407.9025249964L398.534077328,407.9025249964L398.534077328,385.6917723082L398.2287009839,383.55413789960005L397.3125719516,381.8896217706L396.63837840323123,381.2648905877812L395.837303134425,380.81865402862496L394.90934614518125,380.5509120931312L393.8545074355,380.4616647813L392.624937543025,380.5659658565687L391.51687302690004,380.878869082375L390.530313887125,381.4003744587187L389.6652601237,382.1304819856L388.9652601237,383.0170411254125L388.4652601237,383.99929918995L388.16526012369997,385.0772561792125L388.0652601237,386.2509120932L388.0652601237,407.9025249964L374.1641848549,407.9025249964L374.1641848549,357.2702669319L388.0652601237,357.2702669319ZM347.2763913065,380.8057508029L347.5602622742,380.8057508029L353.4269289409,371.0337077921L368.7903698011,371.0337077921L355.8011224893,388.7025249964L369.6247784032,407.9025249964L353.4269289409,407.9025249964L346.4419827043,396.3068260717L346.1581117366,396.3068260717L339.1129504463,407.9025249964L323.6720902312,407.9025249964L337.8484343172,388.3498368244L325.0742407688,371.0337077921L341.4097246398,371.0337077921ZM259.2940707409,383.5326325233L259.2940707409,359.8595142437L273.4704148269,359.8595142437L273.4704148269,407.9025249964L259.9908449344,407.9025249964L239.8101997731,384.5820948889L239.8101997731,407.9025249964L225.6338556871,407.9025249964L225.6338556871,359.8595142437L239.1134255796,359.8595142437ZM438.20184399465944,379.7420411254734L436.8127310914375,380.1122024157938L435.63732786563435,380.72913789966094L434.67563431725,381.592847577075L433.9276504462844,382.7033314480359L433.39337625273754,384.06058951254374L433.0728117366094,385.66462177059844L432.9659568979,387.5154282222L432.9659568979,391.4896217706L433.0728117366094,393.3222830609203L433.39337625273754,394.91058951253126L433.9276504462844,396.25454112543287L434.67563431725,397.354137899625L435.63732786563435,398.2093798351078L436.8127310914375,398.82026693188124L438.20184399465944,399.1867991899453L439.8046665753,399.3089766093L441.4256343172219,399.1867991899453L442.83047302688755,398.82026693188124L444.0191827042969,398.2093798351078L444.99176334945,397.354137899625L445.7482149623469,396.25454112543287L446.2885375429875,394.91058951253126L446.61273109137187,393.3222830609203L446.7207956075,391.4896217706L446.7207956075,387.5154282222L446.61273109137187,385.66462177059844L446.2885375429875,384.06058951254374L445.7482149623469,382.7033314480359L444.99176334945,381.592847577075L444.0191827042969,380.72913789966094L442.83047302688755,380.1122024157938L441.4256343172219,379.7420411254734L439.8046665753,379.6186540287ZM555.2239117365984,379.1566916630547L553.8548257150937,379.44822392111877L552.666922489286,379.9341110178922L551.6602020591749,380.61435295337503L550.8346644247611,381.48894972756716L550.1903095860437,382.55790134046873L549.7271375430234,383.82120779207963L549.4451482957,385.2788690824L562.9935353925,385.2788690824L562.8908472204562,383.9208045662875L562.582782704325,382.71112714695L562.0693418441062,381.6498368243875L561.3505246398,380.7369335986L560.4483741021625,380.00306263083127L559.38493324195,379.47886908242504L558.1602020591624,379.16435295338124L556.7741805538,379.0595142437ZM300.8947180526984,379.1566916630547L299.52563203119377,379.44822392111877L298.33772880538595,379.9341110178922L297.331008375275,380.61435295337503L296.50547074086097,381.48894972756716L295.86111590214375,382.55790134046873L295.3979438591235,383.82120779207963L295.1159546118,385.2788690824L308.6643417086,385.2788690824L308.5616535365562,383.9208045662875L308.253589020425,382.71112714695L307.7401481602062,381.6498368243875L307.0213309559,380.7369335986L306.11918041826254,380.00306263083127L305.05573955805005,379.47886908242504L303.8310083752625,379.16435295338124L302.4449868699,379.0595142437ZM414.60152660005275,173.05142708257367L419.18981977294817,173.58225591893657L423.716377141499,174.40332210467773L428.1679696047742,175.50698781481356L432.53136806184295,176.88561522436038L436.7933434117741,178.53156650833455L440.9406665536368,180.43720384175242L444.9601083865,182.5948893996304L448.8384398094327,184.99698535698482L452.562431721504,187.63585388883206L456.1188550217829,190.50385717018844L459.49448060933827,193.59335737607037L462.6760793832393,196.89671668149418L465.650422242555,200.40629726147625L468.4042800863543,204.11446129103294L470.92442381370626,208.01357094518056L473.1976243236799,212.0959883989355L475.21065251534424,216.3540758273142L476.9502792877683,220.7801954053329L478.4032755400211,225.36670930800807L479.55641217117164,230.105979710356L480.39646008028893,234.99036878739304L480.910190166442,240.0122387141356L481.0843733287,245.1639516656L480.92426678450545,249.97851478090848L480.44901278772556,254.73396256981877L479.66620979206596,259.41713412445375L478.5834562512323,264.0148685369363L477.2083506189302,268.5140048993893L475.5484913488653,272.90138230393563L473.6114768947432,277.1638398426983L471.40490571026953,281.2882166078L468.93637624914993,285.26135169136376L466.2134869650901,289.0700841855124L463.2438363117956,292.7012531823689L460.03502274297205,296.14169777405607L456.594644712325,299.3782570526969L452.93030067356034,302.3977701104141L449.04958908038344,305.1870760393307L444.9601083865,307.7330139315696L440.4115025163975,310.1580233638749L437.45546113726544,311.4839819551347L437.2235457429,311.6862068374L437.09413919451305,311.73317037069614L435.26413400706036,313.2411413747141L431.38342241388347,316.0304473036307L427.29394172,318.5763851958696L422.7453358498975,321.0013946281749L418.1394038757608,323.06742628624926L413.48937489852085,324.7821179950762L408.80847801910863,326.15310757963937L404.109942338455,327.1880328649224L399.4069969574912,327.894531675909L394.7128709771479,328.28024183758276L390.04079349835627,328.3528011749273L385.40399362204727,328.1198475129263L380.81570044915185,327.58901867656346L376.28914308060104,326.76795249082227L371.8375506173258,325.66428678068644L367.47415216025706,324.2856593711397L363.2121768103259,322.63970808716545L359.06485366846323,320.7340707537476L355.0454118356,318.5763851958696L351.1670804126673,316.17428923851514L347.443088500596,313.53542070666794L343.8866652003171,310.66741742531156L340.51103961276175,307.57791721942965L337.3294408388607,304.27455791400587L334.355097979545,300.7649773340238L331.60124013574574,297.0568133044671L329.08109640839376,293.15770365031943L326.8078958984201,289.07528619656443L324.7948677067558,284.8171987681858L323.0552409343317,280.39107919016703L321.6022446820789,275.8045652874919L320.4491080509284,271.065294885144L319.6090601418111,266.180905808107L319.095330055658,261.1590358813644L318.9211468934,256.0073229299L319.08125343759457,251.1927598145915L319.55650743437445,246.43731202568125L320.33931043003406,241.7541404710463L321.4220639708677,237.15640605856373L322.79716960316983,232.65726969611072L324.4570288732347,228.26989229156436L326.3940433273568,224.00743475280174L328.6006145118305,219.8830579877L331.0691439729501,215.90992290413624L333.7920332570099,212.10119040998754L336.76168391030444,208.47002141313106L339.97049747912797,205.02957682144387L343.410875509775,201.79301754280309L347.0752195485397,198.77350448508585L350.9559311417166,195.98419855616925L355.0454118356,193.4382606639304L359.5940177057025,191.01325123162508L362.55005908483463,189.68729264036529L362.7819744792,189.4850677581L362.91138102758714,189.4381042248038L364.74138621503965,187.93013322078585L368.62209780821655,185.14082729186924L372.7115785021,182.5948893996304L377.2601843722025,180.16987996732507L381.8661163463392,178.10384830925076L386.51614532357917,176.38915660042383L391.1970422029914,175.01816701586066L395.895577883645,173.98324173057756L400.59852326460884,173.276742919591L405.29264924495214,172.89103275791723L409.96472672374375,172.81847342057267ZM387.62648257845217,183.73440402221723L382.93235659810887,184.120114183891L378.229411217145,184.82661299487756L373.5308755364914,185.86153828016066L368.8499786570792,187.23252786472383L364.1999496798392,188.94721957355077L363.928545487513,189.06896033234366L362.91138102758714,189.4381042248038L362.6793650836294,189.62929128719964L362.55005908483463,189.68729264036529L361.53757437888095,190.57015598377174L361.077042176275,190.94964627850308L360.75597196810685,191.25169528360797L359.8375142180293,192.05256928717847L357.77294663411755,194.05799686940432L357.63666414562795,194.18620555714386L357.0390425512795,194.770878105117L354.392627464538,197.6337477561638L351.9043369433922,200.6349317845672L349.58023897342935,203.76818373457547L347.4264015402369,207.02725715043692L345.44889262940217,210.40590557639985L343.6537802265125,213.8978825567125L342.0471323171552,217.49694163562322L340.63501688691775,221.19683635738028L339.4235019213874,224.99132026623198L338.4186554061515,228.87414690642657L338.0470348611087,230.73430101053629L338.00547709653404,230.9107692067463L337.9731858919813,231.10395350913765L337.6265453267975,232.8390698222124L337.30872074508795,235.07916092687998L337.2226741008744,235.59394076138125L337.1916745708731,235.90412573068437L337.0532396689127,236.87984255783772L336.82455960900745,239.57752152642414L336.74742010409454,240.3493885502915L336.7398615158649,240.5766828203504L336.70480641808444,240.99021865755083L336.58731355990017,245.16395166559414L336.7398615158649,240.5766828203504L336.82455960900745,239.57752152642414L337.1916745708731,235.90412573068437L337.30872074508795,235.07916092687998L337.9731858919813,231.10395350913765L338.0470348611087,230.73430101053629L339.0882306373677,226.31303479426373L340.4633362696698,221.8138984318107L342.1231955397347,217.42652102726436L344.0602099938568,213.16406348850174L346.26678117833046,209.0396867234L348.73531063945006,205.06655163983623L351.4581999235099,201.25781914568753L354.4278505768044,197.62665014883106L357.59530827214195,194.23054674064286L357.77294663411755,194.05799686940432L360.75597196810685,191.25169528360797L361.53757437888095,190.57015598377174L362.6793650836294,189.62929128719964L363.928545487513,189.06896033234366L369.49626002153747,187.04835511443594L376.47325364575,185.2512795397375L383.70153326133754,184.13952939607032L391.1696767778,183.7587930455L398.54653280520415,184.13114129834838L405.7126155685332,185.22415207476348L412.26847952825347,186.9085452715307L413.0620604832668,187.1592792961769L419.1507647644071,189.3857761395386L419.7634525972919,189.66729768202245L424.64926246230476,192.01856447803394L426.3189742158547,192.9148861779769L431.36696833664854,195.97832013789L431.990141958299,196.4199089755886L436.7688482373916,199.9893307446906L437.2957413800799,200.4142327134849L442.234036116425,204.8972752292375L446.90028728797563,210.02549642116065L451.06307412595044,215.58597235109082L454.68581024666173,221.542652045833L457.7319092664219,227.8594845321922L460.1647848015434,234.50041883697344L461.9478504683387,241.42940398698184L462.95310899752405,248.01183105576038L463.0739646072254,249.193231888992L463.4182066622,256.0073229299L463.2656587062351,260.5945917751501L463.18096061309245,261.59375306907754L462.8138456512271,265.26714886481477L462.69679947701195,266.0921136686207L462.0323343301187,270.0673210863626L461.95848536099135,270.4369735849637L460.9172895847323,274.8582398012363L459.5421839524302,279.3573761636893L457.8823246823653,283.74475356823564L455.9453102282432,288.0072111069983L453.73873904376956,292.1315878721L451.27020958264995,296.10472295566376L448.54732029859014,299.91345544981243L445.5776696452956,303.5446244466689L442.41021194995636,306.9407278548588L442.2325735879821,307.11327772609604L439.24954825399334,309.9195793118919L438.4679458432187,310.6011186117286L437.3261551384708,311.54198330830025L436.0769747345869,312.10231426315636L430.50926020056255,314.122919481064L423.53226657635,315.9199950557625L416.3039869607625,317.0317451994297L408.8358434443,317.41248155L401.45898741689587,317.04013329715167L394.29290465356684,315.94712252073657L387.73704069384644,314.26272932396927L386.94345973883264,314.01199529932296L380.8547554576934,311.7854984559616L380.2420676248088,311.50397691347786L375.35625775979634,309.1527101174666L373.6865460062437,308.2563884175222L368.6385518854528,305.1929544576109L368.0153782637981,304.7513656199093L363.23667198470906,301.1819438508099L362.70977884201926,300.75704188201445L357.771484105675,296.2739993662625L353.1052329341244,291.1457781743393L348.9424460961496,285.58530224440915L345.3197099754383,279.62862254966706L342.2736109556781,273.31179006330785L339.8407354205566,266.6708557585265L338.05766975376133,259.7418706085182L337.0524112245759,253.15944353973936L336.93155561487464,251.9780427065086L336.5873135599,245.1639516656L336.761496722158,250.31566461706439L336.93155561487464,251.9780427065086L336.96100033897994,252.5608855864777L337.0524112245759,253.15944353973936L337.27522680831106,255.33753454380695L338.11527471742835,260.221923620844L339.26841134857887,264.96119402319187L340.7214076008317,269.54770792586703L342.46103437325576,273.97382750388573L344.4740625649201,278.23191493226443L346.74726307489374,282.31433238601943L349.2674068022457,286.2134420401671L352.021264646045,289.9216060697238L354.9956075053607,293.43118664970586L358.1772062792617,296.73454595512965L361.5528318668171,299.82404616101155L362.70977884201926,300.75704188201445L362.9046132271139,300.9339148469837L363.23667198470906,301.1819438508099L365.10925516709597,302.69204944236793L368.0153782637981,304.7513656199093L368.4680339147535,305.08947364330805L368.6385518854528,305.1929544576109L368.8332470791673,305.33091797421514L372.7115785021,307.7330139315696L373.6865460062437,308.2563884175222L374.42515978490616,308.70462478204047L375.35625775979634,309.1527101174666L376.7310203349632,309.89069948944757L380.2420676248088,311.50397691347786L380.7394044538844,311.74331728998595L380.8547554576934,311.7854984559616L385.14031882675704,313.44228810683967L386.94345973883264,314.01199529932296L387.37418153800047,314.16950019394966L387.73704069384644,314.26272932396927L389.5037172838258,314.82091551638644L393.955309747101,315.92458122652226L398.4818671156518,316.74564741226345L403.07016028854724,317.2764762486263L407.70696016485624,317.5094299106273L412.37903764364785,317.43687057328276L417.07316362399115,317.051160411609L421.776109004955,316.3446616006224L426.4746446856086,315.30973631533936L431.1555415650208,313.9387467307762L435.8055705422608,312.22405502194925L436.0769747345869,312.10231426315636L437.09413919451305,311.73317037069614L437.3261551384708,311.54198330830025L437.45546113726544,311.4839819551347L438.4679458432187,310.6011186117286L438.92847804582505,310.2216283169969L439.24954825399334,309.9195793118919L440.1680060040707,309.1187053083215L442.2325735879821,307.11327772609604L442.36885607647207,306.9850690383561L442.9664776708205,306.40039649038295L445.612892757562,303.5375268393362L448.1011832787078,300.53634281093275L450.4252812486707,297.4030908609245L452.5791186818631,294.144017445063L454.55662759269785,290.76536901910015L456.35173999558754,287.2733920387875L457.9583879049448,283.6743329598767L459.37050333518226,279.97443823811966L460.5820183007126,276.179954329268L461.5868648159485,272.2971276890734L461.95848536099135,270.4369735849637L462.000043125566,270.26050538875376L462.0323343301187,270.0673210863626L462.3789748953025,268.3322047732876L462.69679947701195,266.0921136686207L462.7828461212256,265.5773338341188L462.8138456512271,265.26714886481477L462.95228055318734,264.2914320376623L463.18096061309245,261.59375306907754L463.2581001180055,260.8218860452085L463.2656587062351,260.5945917751501L463.3007138040156,260.1810559379492L463.4182066622,256.0073229299L463.24402349994205,250.8556099784356L463.0739646072254,249.193231888992L463.0445198831201,248.61038900902236L462.95310899752405,248.01183105576038L462.73029341378896,245.83374005169304L461.89024550467167,240.949350974656L460.73710887352115,236.21008057230807L459.2841126212683,231.6235666696329L457.54448584884426,227.1974470916142L455.53145765717994,222.9393596632355L453.2582571472063,218.85694220948056L450.7381134198543,214.95783255533294L447.98425557605503,211.24966852577626L445.00991271673934,207.7400879457942L441.8283139428383,204.43672864037038L438.45268835528293,201.34722843448844L437.2957413800799,200.4142327134849L437.1009069949861,200.23735974851627L436.7688482373916,199.9893307446906L434.89626505500405,198.47922515313206L431.990141958299,196.4199089755886L431.53748630734646,196.081800952192L431.36696833664854,195.97832013789L431.17227314293274,195.84035662128483L427.29394172,193.4382606639304L426.3189742158547,192.9148861779769L425.5803604371938,192.46664981345958L424.64926246230476,192.01856447803394L423.2744998871368,191.28057510605242L419.7634525972919,189.66729768202245L419.2661157682156,189.42795730551404L419.1507647644071,189.3857761395386L414.865201395343,187.72898648866038L413.0620604832668,187.1592792961769L412.63133868409955,187.00177440155036L412.26847952825347,186.9085452715307L410.50180293827424,186.35035907911356L406.050210474999,185.24669336897773L401.5236531064482,184.42562718323657L396.9353599335528,183.89479834687367L392.2985600572438,183.66184468487268ZM397.5158378612171,220.6411992458156L395.0474765084242,220.9967118131625L392.6162369498114,221.58923275874062L390.24068008246877,222.41876208255002L387.9393668034863,223.48529978459064L385.730858009954,224.78884586486254L383.6337145989619,226.32940032336563L381.66649746760004,228.1069631601L379.8889346308656,230.0741802914618L378.34838017236257,232.1713237024539L377.0448340920907,234.3798324959862L375.9782963900501,236.68114577496874L375.1487670662407,239.05670264231142L374.5562461206626,241.4879422009242L374.2007335533157,243.95630355371708L374.0822293642001,246.4432258036L374.2007335533157,248.93014805348292L374.5562461206626,251.3985094062758L375.1487670662407,253.82974896488858L375.9782963900501,256.20530583223126L377.0448340920907,258.50661911121375L378.34838017236257,260.71512790474605L379.8889346308656,262.81227131573814L381.66649746760004,264.7794884471L383.6337145989619,266.5570512838344L385.730858009954,268.09760574233746L387.9393668034863,269.40115182260934L390.24068008246877,270.4676895246499L392.6162369498114,271.29721884845935L395.0474765084242,271.88973979403744L397.5158378612171,272.24525236138436L400.00276011110003,272.36375655049994L402.48968236098295,272.24525236138436L404.95804371377585,271.88973979403744L407.38928327238864,271.29721884845935L409.7648401397313,270.4676895246499L412.0661534187138,269.40115182260934L414.2746622122461,268.09760574233746L416.3718056232382,266.5570512838344L418.3390227546,264.7794884471L436.614367582,246.5041436197L418.3390227546,228.1069631601L416.3718056232382,226.32940032336563L414.2746622122461,224.78884586486254L412.0661534187138,223.48529978459064L409.7648401397313,222.41876208255002L407.38928327238864,221.58923275874062L404.95804371377585,220.9967118131625L402.48968236098295,220.6411992458156L400.00276011110003,220.5226950567ZM350.316666361546,160.78589692652915L353.03512390462504,161.93334811058057L355.3880745511556,163.7138758099707L357.23845321493206,166.0483454602822L357.93234521384824,167.3985789656531L358.44919480974875,168.85762249709776L358.77186886685786,170.4155842340641L358.8832342494,172.062572356L358.78037655642606,173.61184899479446L358.4783640311253,175.11432281071916L357.9870375039293,176.55294898547805L357.31623780526945,177.910682700775L356.47580576557766,179.17047913831377L355.47558221528516,180.31529347979819L354.32540798482376,181.32808090693214L353.035123904625,182.19179660141944L351.5531076600262,182.91884541200375L350.0425361891347,183.41838234988822L348.52054262772594,183.70029923562498L347.0042601115758,183.77448788976625L344.057360758154,183.33924778547086L341.338903215075,182.19179660141944L338.9859525685444,180.41126890202932L337.13557390476797,178.0767992517178L336.4416819058518,176.72656574634692L335.9248323099513,175.26752221490224L335.6021582528422,173.7095604779359L335.4907928703,172.062572356L335.59365056327397,170.51329571720555L335.89566308857474,169.01082190128085L336.38698961577074,167.57219572652195L337.0577893144306,166.214462011225L337.89822135412237,164.95466557368624L338.8984449044149,163.80985123220182L340.0486191348763,162.79706380506786L341.33890321507505,161.93334811058057L342.8209194596738,161.20629929999626L344.33149093056534,160.7067623621118L345.8534844919741,160.42484547637503L347.36976700812426,160.35065682223376ZM336.3829057317272,139.06803082072526L338.110258962225,139.79714042725777L339.6053630188743,140.92851740291167L340.781124461482,142.4118783265468L341.550449849855,144.19693977702298L341.8262457438,146.2334183332L341.5689844592713,148.17255143463572L340.8305500865922,149.949405114775L339.6609668471233,151.47733488061232L338.110258962225,152.66969623914224L336.2087188513409,153.44908926681492L334.27814759372575,153.6753646619457L332.40563862957276,153.39880584567476L330.678285399075,152.66969623914224L329.18318134242566,151.53831926348835L328.00741989981793,150.05495833985321L327.23809451144496,148.26989688937704L326.9622986175,146.2334183332L327.21955990202866,144.2942852317643L327.95799427470774,142.517431551625L329.12757751417666,140.9895017857877L330.678285399075,139.79714042725777L332.57982550995905,139.0177473995851L334.5103967675742,138.7914720044543Z"></path></svg>