<svg class="svg-canvas" viewBox="0 0 800 600" width="1600" height="1200" preserveAspectRatio="none" version="1.1" xmlns="http://www.w3.org/2000/svg" xmlns:xlink="http://www.w3.org/1999/xlink">
      <!--滤镜-->
      <defs></defs>
    
      <!-- 背景 -->
      <g id="background">
          <rect x="0" y="0" fill="#ffffff" width="800" height="600"></rect>
          
        </g>
    
      <!--元素-->
      
              <g id="shape_gacWidqxIi" ref="shape_gacWidqxIi" key="shape_gacWidqxIi" mask="">
                <g transform="translate(85.6005991885007,357.5518425904404) rotate(0,314.3994008114994,89.02305672547786) scale(1,1)" style="opacity: 1;mix-blend-mode: undefined;" filter="">
                  <!--普通元素-->
                  <svg xmlns="http://www.w3.org/2000/svg" version="1.1" xmlns:xlink="http://www.w3.org/1999/xlink" width="628.7988016229988" height="178.04611345095572" viewBox="0 0 730.9786068867361 206.978606886736" data-ligature="true" data-parent="shape_gacWidqxIi"><g data-role="text" data-width="557.2406695115965" data-height="34" transform="translate(86.86896868756976, 86.489303443368)"><path d="M18.54-4.50L18.54-21.33L21.62-21.33L21.62 0L18.31 0L5.72-16.84L5.72 0L2.64 0L2.64-21.33L5.95-21.33L18.54-4.50Z" transform="translate(0 28) " fill="rgb(36, 36, 36)" stroke="rgb(36, 36, 36)" stroke-width="0.048" data-glyph-w="24.260444999999997" data-glyph-h="36.037499999999994" data-glyph-ascender="29.694899999999997" data-glyph-descender="-6.342599999999999" data-kerning="0"></path><path d="M16.06-7.73L16.06-6.89L4.68-6.89Q4.77-5.19 5.42-4.14Q6.07-3.10 7.37-2.61Q8.66-2.12 10.70-2.12L10.70-2.12Q12.71-2.12 15.16-2.74L15.16-2.74L15.16-0.36Q12.61 0.29 10.25 0.29L10.25 0.29Q5.87 0.29 3.68-1.69Q1.50-3.68 1.50-7.81L1.50-7.81Q1.50-10.41 2.38-12.22Q3.26-14.04 4.92-14.98Q6.59-15.93 8.94-15.93L8.94-15.93Q12.40-15.93 14.23-13.82Q16.06-11.70 16.06-7.73L16.06-7.73ZM8.89-13.81Q6.88-13.81 5.81-12.59Q4.74-11.37 4.67-8.82L4.67-8.82L13.05-8.82Q12.99-11.37 11.95-12.59Q10.91-13.81 8.89-13.81L8.89-13.81Z" transform="translate(24.260444999999997 28) " fill="rgb(36, 36, 36)" stroke="rgb(36, 36, 36)" stroke-width="0.048" data-glyph-w="17.298" data-glyph-h="36.037499999999994" data-glyph-ascender="29.694899999999997" data-glyph-descender="-6.342599999999999" data-kerning="0"></path><path d="M16.79-15.68L10.51-7.94L16.98 0L13.31 0L8.61-5.79L3.89 0L0.30 0L6.73-7.90L0.43-15.68L4.11-15.68L8.68-10.05L13.23-15.68L16.79-15.68Z" transform="translate(41.05392406324701 28) " fill="rgb(36, 36, 36)" stroke="rgb(36, 36, 36)" stroke-width="0.048" data-glyph-w="17.254755" data-glyph-h="36.037499999999994" data-glyph-ascender="29.694899999999997" data-glyph-descender="-6.342599999999999" data-kerning="-0.50452093675298"></path><path d="M10.22-2.34Q10.68-2.34 11.16-2.39Q11.63-2.45 12.34-2.59L12.34-2.59L12.34-0.06Q10.87 0.29 9.41 0.29L9.41 0.29Q6.52 0.29 5.00-1.12Q3.49-2.54 3.49-5.39L3.49-5.39L3.49-13.10L0.36-13.10L0.36-15.68L3.49-15.68L4.04-21.33L6.69-21.33L6.69-15.68L12.12-15.68L12.12-13.10L6.69-13.10L6.69-5.98Q6.69-4.04 7.55-3.19Q8.42-2.34 10.22-2.34L10.22-2.34Z" transform="translate(57.93389208165908 28) " fill="rgb(36, 36, 36)" stroke="rgb(36, 36, 36)" stroke-width="0.048" data-glyph-w="12.757275" data-glyph-h="36.037499999999994" data-glyph-ascender="29.694899999999997" data-glyph-descender="-6.342599999999999" data-kerning="-0.374786981587928"></path><path d="M12.24-6.80L2.31-6.80L2.31-9.46L12.24-9.46L12.24-6.80Z" transform="translate(70.56143312649404 28) " fill="rgb(36, 36, 36)" stroke="rgb(36, 36, 36)" stroke-width="0.048" data-glyph-w="14.544735" data-glyph-h="36.037499999999994" data-glyph-ascender="29.694899999999997" data-glyph-descender="-6.342599999999999" data-kerning="-0.12973395516505198"></path><path d="M17.63 0L2.64 0L2.64-21.33L5.90-21.33L5.90-2.64L17.63-2.64L17.63 0Z" transform="translate(85.10616812649404 28) " fill="rgb(36, 36, 36)" stroke="rgb(36, 36, 36)" stroke-width="0.048" data-glyph-w="17.889014999999997" data-glyph-h="36.037499999999994" data-glyph-ascender="29.694899999999997" data-glyph-descender="-6.342599999999999" data-kerning="0"></path><path d="M16.06-7.73L16.06-6.89L4.68-6.89Q4.77-5.19 5.42-4.14Q6.07-3.10 7.37-2.61Q8.66-2.12 10.70-2.12L10.70-2.12Q12.71-2.12 15.16-2.74L15.16-2.74L15.16-0.36Q12.61 0.29 10.25 0.29L10.25 0.29Q5.87 0.29 3.68-1.69Q1.50-3.68 1.50-7.81L1.50-7.81Q1.50-10.41 2.38-12.22Q3.26-14.04 4.92-14.98Q6.59-15.93 8.94-15.93L8.94-15.93Q12.40-15.93 14.23-13.82Q16.06-11.70 16.06-7.73L16.06-7.73ZM8.89-13.81Q6.88-13.81 5.81-12.59Q4.74-11.37 4.67-8.82L4.67-8.82L13.05-8.82Q12.99-11.37 11.95-12.59Q10.91-13.81 8.89-13.81L8.89-13.81Z" transform="translate(102.40417288629769 28) " fill="rgb(36, 36, 36)" stroke="rgb(36, 36, 36)" stroke-width="0.048" data-glyph-w="17.298" data-glyph-h="36.037499999999994" data-glyph-ascender="29.694899999999997" data-glyph-descender="-6.342599999999999" data-kerning="-0.5910102401963481"></path><path d="M9.11-2.71L14.54-15.68L17.70-15.68L10.94 0L7.01 0L0.26-15.68L3.66-15.68L9.11-2.71Z" transform="translate(119.54360916331818 28) " fill="rgb(36, 36, 36)" stroke="rgb(36, 36, 36)" stroke-width="0.048" data-glyph-w="17.96109" data-glyph-h="36.037499999999994" data-glyph-ascender="29.694899999999997" data-glyph-descender="-6.342599999999999" data-kerning="-0.158563722979508"></path><path d="M16.06-7.73L16.06-6.89L4.68-6.89Q4.77-5.19 5.42-4.14Q6.07-3.10 7.37-2.61Q8.66-2.12 10.70-2.12L10.70-2.12Q12.71-2.12 15.16-2.74L15.16-2.74L15.16-0.36Q12.61 0.29 10.25 0.29L10.25 0.29Q5.87 0.29 3.68-1.69Q1.50-3.68 1.50-7.81L1.50-7.81Q1.50-10.41 2.38-12.22Q3.26-14.04 4.92-14.98Q6.59-15.93 8.94-15.93L8.94-15.93Q12.40-15.93 14.23-13.82Q16.06-11.70 16.06-7.73L16.06-7.73ZM8.89-13.81Q6.88-13.81 5.81-12.59Q4.74-11.37 4.67-8.82L4.67-8.82L13.05-8.82Q12.99-11.37 11.95-12.59Q10.91-13.81 8.89-13.81L8.89-13.81Z" transform="translate(137.34613544033868 28) " fill="rgb(36, 36, 36)" stroke="rgb(36, 36, 36)" stroke-width="0.048" data-glyph-w="17.298" data-glyph-h="36.037499999999994" data-glyph-ascender="29.694899999999997" data-glyph-descender="-6.342599999999999" data-kerning="-0.158563722979508"></path><path d="M5.58 0L2.38 0L2.38-23.29L5.58-23.29L5.58 0Z" transform="translate(154.64413544033866 28) " fill="rgb(36, 36, 36)" stroke="rgb(36, 36, 36)" stroke-width="0.048" data-glyph-w="7.9570799999999995" data-glyph-h="36.037499999999994" data-glyph-ascender="29.694899999999997" data-glyph-descender="-6.342599999999999" data-kerning="0"></path><path d="M0,0Z" transform="translate(162.60121544033865 28) " fill="rgb(36, 36, 36)" stroke="rgb(36, 36, 36)" stroke-width="0.048" data-glyph-w="8.10123" data-glyph-h="36.037499999999994" data-glyph-ascender="29.694899999999997" data-glyph-descender="-6.342599999999999" data-kerning="0"></path><path d="M17.63 0L2.64 0L2.64-21.33L5.90-21.33L5.90-2.64L17.63-2.64L17.63 0Z" transform="translate(170.70244544033864 28) " fill="rgb(36, 36, 36)" stroke="rgb(36, 36, 36)" stroke-width="0.048" data-glyph-w="17.889014999999997" data-glyph-h="36.037499999999994" data-glyph-ascender="29.694899999999997" data-glyph-descender="-6.342599999999999" data-kerning="0"></path><path d="M5.58 0L2.38 0L2.38-15.68L5.58-15.68L5.58 0ZM3.98-18.74Q2.96-18.74 2.43-19.19Q1.90-19.63 1.90-20.47L1.90-20.47Q1.90-21.32 2.43-21.77Q2.96-22.23 3.98-22.23L3.98-22.23Q5.00-22.23 5.53-21.77Q6.05-21.32 6.05-20.47L6.05-20.47Q6.05-19.63 5.53-19.19Q5.00-18.74 3.98-18.74L3.98-18.74Z" transform="translate(188.75002416331813 28) " fill="rgb(36, 36, 36)" stroke="rgb(36, 36, 36)" stroke-width="0.048" data-glyph-w="7.9570799999999995" data-glyph-h="36.037499999999994" data-glyph-ascender="29.694899999999997" data-glyph-descender="-6.342599999999999" data-kerning="0.158563722979508"></path><path d="M9.11-2.71L14.54-15.68L17.70-15.68L10.94 0L7.01 0L0.26-15.68L3.66-15.68L9.11-2.71Z" transform="translate(196.70710416331815 28) " fill="rgb(36, 36, 36)" stroke="rgb(36, 36, 36)" stroke-width="0.048" data-glyph-w="17.96109" data-glyph-h="36.037499999999994" data-glyph-ascender="29.694899999999997" data-glyph-descender="-6.342599999999999" data-kerning="0"></path><path d="M5.58 0L2.38 0L2.38-15.68L5.58-15.68L5.58 0ZM3.98-18.74Q2.96-18.74 2.43-19.19Q1.90-19.63 1.90-20.47L1.90-20.47Q1.90-21.32 2.43-21.77Q2.96-22.23 3.98-22.23L3.98-22.23Q5.00-22.23 5.53-21.77Q6.05-21.32 6.05-20.47L6.05-20.47Q6.05-19.63 5.53-19.19Q5.00-18.74 3.98-18.74L3.98-18.74Z" transform="translate(214.66819416331816 28) " fill="rgb(36, 36, 36)" stroke="rgb(36, 36, 36)" stroke-width="0.048" data-glyph-w="7.9570799999999995" data-glyph-h="36.037499999999994" data-glyph-ascender="29.694899999999997" data-glyph-descender="-6.342599999999999" data-kerning="0"></path><path d="M2.38 0L2.38-15.68L5.03-15.68L5.23-13.97L5.42-13.97Q6.53-14.91 7.97-15.42Q9.41-15.93 10.98-15.93L10.98-15.93Q13.80-15.93 15.39-14.39Q16.98-12.84 16.98-9.57L16.98-9.57L16.98 0L13.78 0L13.78-9.44Q13.78-11.45 12.87-12.32Q11.96-13.19 10.21-13.19L10.21-13.19Q8.95-13.19 7.72-12.72Q6.49-12.25 5.58-11.30L5.58-11.30L5.58 0L2.38 0Z" transform="translate(222.62527416331815 28) " fill="rgb(36, 36, 36)" stroke="rgb(36, 36, 36)" stroke-width="0.048" data-glyph-w="19.157535" data-glyph-h="36.037499999999994" data-glyph-ascender="29.694899999999997" data-glyph-descender="-6.342599999999999" data-kerning="0"></path><path d="M8.26 6.63Q6.86 6.63 5.38 6.44Q3.91 6.24 2.58 5.84L2.58 5.84L2.58 3.29Q5.48 4.14 8.07 4.14L8.07 4.14Q10.05 4.14 11.25 3.66Q12.45 3.19 13.02 2.16Q13.59 1.12 13.59-0.59L13.59-0.59L13.59-1.77L13.43-1.77Q12.50-0.85 11.21-0.36Q9.93 0.13 8.38 0.13L8.38 0.13Q6.41 0.13 4.86-0.70Q3.30-1.53 2.40-3.24Q1.50-4.96 1.50-7.51L1.50-7.51Q1.50-11.62 3.82-13.77Q6.14-15.93 10.67-15.93L10.67-15.93Q12.24-15.93 13.83-15.71Q15.42-15.50 16.79-15.09L16.79-15.09L16.79-1.17Q16.79 1.57 15.86 3.29Q14.93 5.02 13.05 5.82Q11.17 6.63 8.26 6.63L8.26 6.63ZM9.37-2.49Q10.57-2.49 11.67-2.90Q12.77-3.32 13.59-4.17L13.59-4.17L13.59-13.06Q12.14-13.43 10.38-13.43L10.38-13.43Q7.55-13.43 6.13-12.04Q4.70-10.64 4.70-7.78L4.70-7.78Q4.70-5.00 5.95-3.75Q7.19-2.49 9.37-2.49L9.37-2.49Z" transform="translate(241.78280916331815 28) " fill="rgb(36, 36, 36)" stroke="rgb(36, 36, 36)" stroke-width="0.048" data-glyph-w="19.17195" data-glyph-h="36.037499999999994" data-glyph-ascender="29.694899999999997" data-glyph-descender="-6.342599999999999" data-kerning="0"></path><path d="M3.89-3.78Q4.97-3.78 5.54-3.13Q6.10-2.48 6.10-1.18L6.10-1.18Q6.10 0.37 5.62 1.89Q5.15 3.40 4.32 4.66L4.32 4.66L2.49 4.66Q3.04 3.36 3.35 2.29Q3.66 1.23 3.73 0.20L3.73 0.20Q2.83 0.13 2.30-0.40Q1.77-0.94 1.77-1.80L1.77-1.80Q1.77-2.71 2.34-3.24Q2.91-3.78 3.89-3.78L3.89-3.78Z" transform="translate(260.95475916331816 28) " fill="rgb(36, 36, 36)" stroke="rgb(36, 36, 36)" stroke-width="0.048" data-glyph-w="7.885005" data-glyph-h="36.037499999999994" data-glyph-ascender="29.694899999999997" data-glyph-descender="-6.342599999999999" data-kerning="0"></path><path d="M0,0Z" transform="translate(268.83976416331814 28) " fill="rgb(36, 36, 36)" stroke="rgb(36, 36, 36)" stroke-width="0.048" data-glyph-w="8.10123" data-glyph-h="36.037499999999994" data-glyph-ascender="29.694899999999997" data-glyph-descender="-6.342599999999999" data-kerning="0"></path><path d="M7.96 0.27Q4.58 0.27 1.66-0.69L1.66-0.69L1.66-3.34Q3.13-2.85 4.82-2.59Q6.52-2.34 8.00-2.34L8.00-2.34Q10.78-2.34 12.09-3.22Q13.39-4.11 13.39-5.84L13.39-5.84Q13.39-6.80 12.97-7.43Q12.54-8.06 11.60-8.48Q10.67-8.89 9.04-9.21L9.04-9.21L7.60-9.50Q4.28-10.15 2.77-11.59Q1.25-13.03 1.25-15.44L1.25-15.44Q1.25-18.38 3.48-19.99Q5.71-21.61 10.03-21.61L10.03-21.61Q13.06-21.61 15.61-20.87L15.61-20.87L15.61-18.21Q14.36-18.58 12.93-18.79Q11.50-19.00 10.08-19.00L10.08-19.00Q4.50-19.00 4.50-15.57L4.50-15.57Q4.50-14.62 4.87-13.99Q5.25-13.36 6.10-12.94Q6.95-12.53 8.43-12.22L8.43-12.22L9.87-11.95Q12.30-11.47 13.79-10.68Q15.28-9.89 15.96-8.74Q16.63-7.58 16.63-6.00L16.63-6.00Q16.63-4.02 15.61-2.61Q14.59-1.20 12.63-0.46Q10.68 0.27 7.96 0.27L7.96 0.27Z" transform="translate(276.9409941633181 28) " fill="rgb(36, 36, 36)" stroke="rgb(36, 36, 36)" stroke-width="0.048" data-glyph-w="17.889014999999997" data-glyph-h="36.037499999999994" data-glyph-ascender="29.694899999999997" data-glyph-descender="-6.342599999999999" data-kerning="0"></path><path d="M20.20-15.93Q22.79-15.93 24.26-14.40Q25.73-12.87 25.73-9.64L25.73-9.64L25.73 0L22.53 0L22.53-9.49Q22.53-11.46 21.72-12.32Q20.90-13.19 19.42-13.19L19.42-13.19Q18.34-13.19 17.33-12.76Q16.32-12.34 15.57-11.43L15.57-11.43Q15.70-10.64 15.70-9.67L15.70-9.67L15.70 0L12.56 0L12.56-9.49Q12.56-11.47 11.78-12.33Q11.01-13.19 9.54-13.19L9.54-13.19Q8.42-13.19 7.37-12.70Q6.33-12.21 5.58-11.24L5.58-11.24L5.58 0L2.38 0L2.38-15.68L5.03-15.68L5.23-13.97L5.42-13.97Q6.37-14.92 7.65-15.42Q8.94-15.93 10.41-15.93L10.41-15.93Q11.89-15.93 13.01-15.38Q14.13-14.83 14.79-13.69L14.79-13.69Q15.99-14.86 17.38-15.40Q18.78-15.93 20.20-15.93L20.20-15.93Z" transform="translate(294.8300091633181 28) " fill="rgb(36, 36, 36)" stroke="rgb(36, 36, 36)" stroke-width="0.048" data-glyph-w="27.893024999999998" data-glyph-h="36.037499999999994" data-glyph-ascender="29.694899999999997" data-glyph-descender="-6.342599999999999" data-kerning="0"></path><path d="M7.96-15.93Q10.44-15.93 11.99-15.34Q13.55-14.76 14.33-13.41Q15.11-12.05 15.11-9.72L15.11-9.72L15.11 0L12.43 0L12.20-1.69L12.02-1.69Q11.14-0.76 9.80-0.25Q8.46 0.26 6.95 0.26L6.95 0.26Q5.22 0.26 3.99-0.28Q2.77-0.82 2.13-1.80Q1.50-2.78 1.50-4.11L1.50-4.11Q1.50-6.20 3.06-7.34Q4.63-8.49 8.04-8.79L8.04-8.79L11.96-9.18L11.96-9.93Q11.96-11.32 11.49-12.09Q11.01-12.87 10.05-13.19Q9.10-13.51 7.51-13.51L7.51-13.51Q6.41-13.51 5.14-13.32Q3.86-13.13 2.70-12.76L2.70-12.76L2.70-15.15Q3.85-15.52 5.25-15.73Q6.66-15.93 7.96-15.93L7.96-15.93ZM7.80-1.96Q8.95-1.96 10.03-2.37Q11.11-2.78 11.96-3.60L11.96-3.60L11.96-7.28L8.29-6.92Q6.37-6.70 5.55-6.09Q4.73-5.48 4.73-4.35L4.73-4.35Q4.73-3.21 5.49-2.59Q6.26-1.96 7.80-1.96L7.80-1.96Z" transform="translate(322.7230341633181 28) " fill="rgb(36, 36, 36)" stroke="rgb(36, 36, 36)" stroke-width="0.048" data-glyph-w="17.283585" data-glyph-h="36.037499999999994" data-glyph-ascender="29.694899999999997" data-glyph-descender="-6.342599999999999" data-kerning="0"></path><path d="M2.38 0L2.38-15.68L5.02-15.68L5.26-13.68L5.45-13.68Q6.30-14.70 7.65-15.28Q8.99-15.86 10.47-15.86L10.47-15.86Q11.30-15.86 12.04-15.71L12.04-15.71L12.04-12.84Q11.33-12.97 10.31-12.97L10.31-12.97Q9.04-12.97 7.73-12.48Q6.41-11.99 5.58-11.03L5.58-11.03L5.58 0L2.38 0Z" transform="translate(340.00661916331813 28) " fill="rgb(36, 36, 36)" stroke="rgb(36, 36, 36)" stroke-width="0.048" data-glyph-w="12.238335" data-glyph-h="36.037499999999994" data-glyph-ascender="29.694899999999997" data-glyph-descender="-6.342599999999999" data-kerning="0"></path><path d="M10.22-2.34Q10.68-2.34 11.16-2.39Q11.63-2.45 12.34-2.59L12.34-2.59L12.34-0.06Q10.87 0.29 9.41 0.29L9.41 0.29Q6.52 0.29 5.00-1.12Q3.49-2.54 3.49-5.39L3.49-5.39L3.49-13.10L0.36-13.10L0.36-15.68L3.49-15.68L4.04-21.33L6.69-21.33L6.69-15.68L12.12-15.68L12.12-13.10L6.69-13.10L6.69-5.98Q6.69-4.04 7.55-3.19Q8.42-2.34 10.22-2.34L10.22-2.34Z" transform="translate(352.7494751000711 28) " fill="rgb(36, 36, 36)" stroke="rgb(36, 36, 36)" stroke-width="0.048" data-glyph-w="12.757275" data-glyph-h="36.037499999999994" data-glyph-ascender="29.694899999999997" data-glyph-descender="-6.342599999999999" data-kerning="0.50452093675298"></path><path d="M5.58 0L2.38 0L2.38-23.29L5.58-23.29L5.58 0Z" transform="translate(365.59323940351453 28) " fill="rgb(36, 36, 36)" stroke="rgb(36, 36, 36)" stroke-width="0.048" data-glyph-w="7.9570799999999995" data-glyph-h="36.037499999999994" data-glyph-ascender="29.694899999999997" data-glyph-descender="-6.342599999999999" data-kerning="0.08648930344336801"></path><path d="M9.05-2.58L14.54-15.68L17.70-15.68L8.20 6.34L5.03 6.34L7.78 0L7.01 0L0.26-15.68L3.66-15.68L9.05-2.58Z" transform="translate(373.5503194035145 28) " fill="rgb(36, 36, 36)" stroke="rgb(36, 36, 36)" stroke-width="0.048" data-glyph-w="17.96109" data-glyph-h="36.037499999999994" data-glyph-ascender="29.694899999999997" data-glyph-descender="-6.342599999999999" data-kerning="0"></path><path d="M0,0Z" transform="translate(391.5114094035145 28) " fill="rgb(36, 36, 36)" stroke="rgb(36, 36, 36)" stroke-width="0.048" data-glyph-w="8.10123" data-glyph-h="36.037499999999994" data-glyph-ascender="29.694899999999997" data-glyph-descender="-6.342599999999999" data-kerning="0"></path><path d="M13.13 0.27Q7.64 0.27 4.66-2.37Q1.69-5.02 1.69-10.62L1.69-10.62Q1.69-14.24 3.06-16.70Q4.43-19.16 7.03-20.38Q9.64-21.61 13.35-21.61L13.35-21.61Q14.80-21.61 16.09-21.45Q17.37-21.29 18.67-20.94L18.67-20.94L18.67-18.25Q16.19-18.90 13.55-18.90L13.55-18.90Q9.34-18.90 7.23-16.91Q5.12-14.92 5.12-10.68L5.12-10.68Q5.12-6.33 7.20-4.38Q9.28-2.44 13.32-2.44L13.32-2.44Q14.73-2.44 16.02-2.62Q17.30-2.81 18.67-3.24L18.67-3.24L18.67-0.53Q16.09 0.27 13.13 0.27L13.13 0.27Z" transform="translate(399.6126394035145 28) " fill="rgb(36, 36, 36)" stroke="rgb(36, 36, 36)" stroke-width="0.048" data-glyph-w="19.54674" data-glyph-h="36.037499999999994" data-glyph-ascender="29.694899999999997" data-glyph-descender="-6.342599999999999" data-kerning="0"></path><path d="M9.41 0.29Q7.01 0.29 5.23-0.62Q3.45-1.53 2.47-3.34Q1.50-5.16 1.50-7.84L1.50-7.84Q1.50-10.49 2.46-12.30Q3.42-14.11 5.19-15.02Q6.96-15.93 9.41-15.93L9.41-15.93Q13.16-15.93 15.24-13.89Q17.31-11.85 17.31-7.84L17.31-7.84Q17.31-5.20 16.33-3.38Q15.35-1.56 13.57-0.63Q11.79 0.29 9.41 0.29L9.41 0.29ZM9.41-2.25Q14.11-2.25 14.11-7.83L14.11-7.83Q14.11-10.72 12.90-12.06Q11.69-13.39 9.41-13.39L9.41-13.39Q7.14-13.39 5.92-12.07Q4.70-10.74 4.70-7.86L4.70-7.86Q4.70-2.25 9.41-2.25L9.41-2.25Z" transform="translate(418.40980544033863 28) " fill="rgb(36, 36, 36)" stroke="rgb(36, 36, 36)" stroke-width="0.048" data-glyph-w="18.811574999999998" data-glyph-h="36.037499999999994" data-glyph-ascender="29.694899999999997" data-glyph-descender="-6.342599999999999" data-kerning="-0.749573963175856"></path><path d="M2.38 0L2.38-15.68L5.03-15.68L5.23-13.97L5.42-13.97Q6.53-14.91 7.97-15.42Q9.41-15.93 10.98-15.93L10.98-15.93Q13.80-15.93 15.39-14.39Q16.98-12.84 16.98-9.57L16.98-9.57L16.98 0L13.78 0L13.78-9.44Q13.78-11.45 12.87-12.32Q11.96-13.19 10.21-13.19L10.21-13.19Q8.95-13.19 7.72-12.72Q6.49-12.25 5.58-11.30L5.58-11.30L5.58 0L2.38 0Z" transform="translate(437.22138044033863 28) " fill="rgb(36, 36, 36)" stroke="rgb(36, 36, 36)" stroke-width="0.048" data-glyph-w="19.157535" data-glyph-h="36.037499999999994" data-glyph-ascender="29.694899999999997" data-glyph-descender="-6.342599999999999" data-kerning="0"></path><path d="M2.38 0L2.38-15.68L5.03-15.68L5.23-13.97L5.42-13.97Q6.53-14.91 7.97-15.42Q9.41-15.93 10.98-15.93L10.98-15.93Q13.80-15.93 15.39-14.39Q16.98-12.84 16.98-9.57L16.98-9.57L16.98 0L13.78 0L13.78-9.44Q13.78-11.45 12.87-12.32Q11.96-13.19 10.21-13.19L10.21-13.19Q8.95-13.19 7.72-12.72Q6.49-12.25 5.58-11.30L5.58-11.30L5.58 0L2.38 0Z" transform="translate(456.37891544033863 28) " fill="rgb(36, 36, 36)" stroke="rgb(36, 36, 36)" stroke-width="0.048" data-glyph-w="19.157535" data-glyph-h="36.037499999999994" data-glyph-ascender="29.694899999999997" data-glyph-descender="-6.342599999999999" data-kerning="0"></path><path d="M16.06-7.73L16.06-6.89L4.68-6.89Q4.77-5.19 5.42-4.14Q6.07-3.10 7.37-2.61Q8.66-2.12 10.70-2.12L10.70-2.12Q12.71-2.12 15.16-2.74L15.16-2.74L15.16-0.36Q12.61 0.29 10.25 0.29L10.25 0.29Q5.87 0.29 3.68-1.69Q1.50-3.68 1.50-7.81L1.50-7.81Q1.50-10.41 2.38-12.22Q3.26-14.04 4.92-14.98Q6.59-15.93 8.94-15.93L8.94-15.93Q12.40-15.93 14.23-13.82Q16.06-11.70 16.06-7.73L16.06-7.73ZM8.89-13.81Q6.88-13.81 5.81-12.59Q4.74-11.37 4.67-8.82L4.67-8.82L13.05-8.82Q12.99-11.37 11.95-12.59Q10.91-13.81 8.89-13.81L8.89-13.81Z" transform="translate(475.5364504403386 28) " fill="rgb(36, 36, 36)" stroke="rgb(36, 36, 36)" stroke-width="0.048" data-glyph-w="17.298" data-glyph-h="36.037499999999994" data-glyph-ascender="29.694899999999997" data-glyph-descender="-6.342599999999999" data-kerning="0"></path><path d="M9.80 0.29Q5.75 0.29 3.63-1.76Q1.50-3.81 1.50-7.81L1.50-7.81Q1.50-11.83 3.74-13.88Q5.98-15.93 10.29-15.93L10.29-15.93Q12.44-15.93 14.24-15.44L14.24-15.44L14.24-12.89Q13.25-13.12 12.38-13.23Q11.52-13.35 10.57-13.35L10.57-13.35Q7.61-13.35 6.19-12.02Q4.77-10.70 4.77-7.86L4.77-7.86Q4.77-5.00 6.12-3.65Q7.47-2.29 10.12-2.29L10.12-2.29Q11.04-2.29 12.01-2.46Q12.97-2.62 14.24-2.98L14.24-2.98L14.24-0.43Q12.20 0.29 9.80 0.29L9.80 0.29Z" transform="translate(492.8344504403386 28) " fill="rgb(36, 36, 36)" stroke="rgb(36, 36, 36)" stroke-width="0.048" data-glyph-w="15.063674999999998" data-glyph-h="36.037499999999994" data-glyph-ascender="29.694899999999997" data-glyph-descender="-6.342599999999999" data-kerning="0"></path><path d="M10.22-2.34Q10.68-2.34 11.16-2.39Q11.63-2.45 12.34-2.59L12.34-2.59L12.34-0.06Q10.87 0.29 9.41 0.29L9.41 0.29Q6.52 0.29 5.00-1.12Q3.49-2.54 3.49-5.39L3.49-5.39L3.49-13.10L0.36-13.10L0.36-15.68L3.49-15.68L4.04-21.33L6.69-21.33L6.69-15.68L12.12-15.68L12.12-13.10L6.69-13.10L6.69-5.98Q6.69-4.04 7.55-3.19Q8.42-2.34 10.22-2.34L10.22-2.34Z" transform="translate(508.22966777020486 28) " fill="rgb(36, 36, 36)" stroke="rgb(36, 36, 36)" stroke-width="0.048" data-glyph-w="12.757275" data-glyph-h="36.037499999999994" data-glyph-ascender="29.694899999999997" data-glyph-descender="-6.342599999999999" data-kerning="0.331542329866244"></path><path d="M16.06-7.73L16.06-6.89L4.68-6.89Q4.77-5.19 5.42-4.14Q6.07-3.10 7.37-2.61Q8.66-2.12 10.70-2.12L10.70-2.12Q12.71-2.12 15.16-2.74L15.16-2.74L15.16-0.36Q12.61 0.29 10.25 0.29L10.25 0.29Q5.87 0.29 3.68-1.69Q1.50-3.68 1.50-7.81L1.50-7.81Q1.50-10.41 2.38-12.22Q3.26-14.04 4.92-14.98Q6.59-15.93 8.94-15.93L8.94-15.93Q12.40-15.93 14.23-13.82Q16.06-11.70 16.06-7.73L16.06-7.73ZM8.89-13.81Q6.88-13.81 5.81-12.59Q4.74-11.37 4.67-8.82L4.67-8.82L13.05-8.82Q12.99-11.37 11.95-12.59Q10.91-13.81 8.89-13.81L8.89-13.81Z" transform="translate(520.7707195115964 28) " fill="rgb(36, 36, 36)" stroke="rgb(36, 36, 36)" stroke-width="0.048" data-glyph-w="17.298" data-glyph-h="36.037499999999994" data-glyph-ascender="29.694899999999997" data-glyph-descender="-6.342599999999999" data-kerning="-0.21622325860842"></path><path d="M8.66 0.26Q6.56 0.26 4.95-0.57Q3.34-1.40 2.42-3.14Q1.50-4.87 1.50-7.51L1.50-7.51Q1.50-11.63 3.78-13.79Q6.07-15.94 10.36-15.94L10.36-15.94Q11.86-15.94 13.59-15.67L13.59-15.67L13.59-23.29L16.79-23.29L16.79 0L14.10 0L13.91-1.76L13.74-1.76Q12.80-0.81 11.50-0.27Q10.21 0.26 8.66 0.26L8.66 0.26ZM9.43-2.36Q10.64-2.36 11.72-2.80Q12.80-3.24 13.59-4.19L13.59-4.19L13.59-13.10Q12.17-13.45 10.52-13.45L10.52-13.45Q7.57-13.45 6.13-12.05Q4.70-10.65 4.70-7.76L4.70-7.76Q4.70-2.36 9.43-2.36L9.43-2.36Z" transform="translate(538.0687195115964 28) " fill="rgb(36, 36, 36)" stroke="rgb(36, 36, 36)" stroke-width="0.048" data-glyph-w="19.17195" data-glyph-h="36.037499999999994" data-glyph-ascender="29.694899999999997" data-glyph-descender="-6.342599999999999" data-kerning="0"></path></g></svg>
                </g>
              </g>
              <g id="shape_CHqaasSnIT" ref="shape_CHqaasSnIT" key="shape_CHqaasSnIT" mask="">
                <g transform="translate(318.92114596391536,138.8014447701032) rotate(0,81.08160764043306,94.72720402209463) scale(1,1)" style="opacity: 1;mix-blend-mode: undefined;" filter="">
                  <!--普通元素-->
                  <svg version="1.1" id="图层_1" xmlns="http://www.w3.org/2000/svg" xmlns:xlink="http://www.w3.org/1999/xlink" x="0px" y="0px" width="162.16321528086613" height="189.45440804418925" viewBox="40.29999923706055 20 133.09999084472656 155.5" style="enable-background:new 0 0 200 200;" xml:space="preserve" class="style-removed" preserveAspectRatio="none" data-parent="shape_CHqaasSnIT">

<circle cx="63.5" cy="47.3" r="9.6" fill="#2EA7E0" stroke-width="0"></circle>
<circle cx="53" cy="26.1" r="6.1" fill="#2EA7E0" stroke-width="0"></circle>
<g>
	<circle cx="114.1" cy="107.3" r="59.3" fill="#1D8FCD" stroke-width="0"></circle>
	<circle cx="99.6" cy="116.2" r="59.3" fill="#036EB8" stroke-width="0"></circle>
	<path d="M99.6,56.9c-8.3,0-16.1,1.7-23.3,4.7c-13.2,10.9-21.5,27.3-21.5,45.7c0,32.8,26.6,59.3,59.3,59.3
		c8.3,0,16.1-1.7,23.3-4.7c13.2-10.9,21.5-27.3,21.5-45.7C158.9,83.4,132.3,56.9,99.6,56.9z" fill="#2EA7E0" stroke-width="0"></path>
</g>
<path d="M136.9,108.4l-15,15c-8.3,8.3-21.8,8.3-30.1,0l0,0c-8.3-8.3-8.3-21.8,0-30.1l0,0c8.3-8.3,21.8-8.3,30.1,0
	L136.9,108.4z" fill="#FFFFFF" stroke-width="0"></path>
</svg>
                </g>
              </g>
              <g id="shape_z9PBvJzKDv" ref="shape_z9PBvJzKDv" key="shape_z9PBvJzKDv" mask="">
                <g transform="translate(10.733703890921305,144.2248731323535) rotate(0,389.2690497134314,240.88195293923786) scale(1,1)" style="opacity: 1;mix-blend-mode: undefined;" filter="">
                  <!--普通元素-->
                  <svg xmlns="http://www.w3.org/2000/svg" version="1.1" xmlns:xlink="http://www.w3.org/1999/xlink" width="778.5380994268628" height="481.76390587847567" viewBox="0 0 905.050540583728 560.050540583728" data-ligature="true" data-parent="shape_z9PBvJzKDv"><g data-role="text" data-width="417.4276876574705" data-height="73" transform="translate(243.81142646312875, 243.52527029186402)"><path d="M61.62 0L45.95 0L22.49-27.11L22.49 0L6.01 0L6.01-55.85L21.68-55.85L45.14-28.33L45.14-55.85L61.62-55.85L61.62 0Z" transform="translate(0 63) " fill="rgb(51, 51, 51)" stroke="rgb(51, 51, 51)" stroke-width="0.135" data-glyph-w="67.62294" data-glyph-h="88.32384" data-glyph-ascender="71.27604000000001" data-glyph-descender="-17.0478" data-kerning="0"></path><path d="M27.03-43.84Q38.80-43.84 45.01-38.32Q51.22-32.80 51.22-21.43L51.22-21.43L51.22-18.67L19.08-18.67Q19.08-14.04 21.15-11.69Q23.22-9.34 27.68-9.34L27.68-9.34Q31.74-9.34 33.65-11.04Q35.56-12.75 35.56-15.59L35.56-15.59L51.22-15.59Q51.22-7.79 45.30-3.41Q39.37 0.97 28.01 0.97L28.01 0.97Q16.07 0.97 9.50-4.59Q2.92-10.15 2.92-21.43L2.92-21.43Q2.92-32.47 9.34-38.15Q15.75-43.84 27.03-43.84L27.03-43.84ZM27.68-33.53Q20.05-33.53 19.16-26.30L19.16-26.30L34.91-26.30Q34.91-29.63 33.00-31.58Q31.09-33.53 27.68-33.53L27.68-33.53Z" transform="translate(67.62294 63) " fill="rgb(51, 51, 51)" stroke="rgb(51, 51, 51)" stroke-width="0.135" data-glyph-w="54.14706" data-glyph-h="88.32384" data-glyph-ascender="71.27604000000001" data-glyph-descender="-17.0478" data-kerning="0"></path><path d="M37.67-22.32L53.74 0L34.91 0L26.79-13.48L26.46-13.48L18.27 0L0.32 0L16.80-22.73L1.95-42.86L20.94-42.86L27.76-31.50L28.09-31.50L34.91-42.86L52.77-42.86L37.67-22.32Z" transform="translate(119.65944765747052 63) " fill="rgb(51, 51, 51)" stroke="rgb(51, 51, 51)" stroke-width="0.135" data-glyph-w="54.14706" data-glyph-h="88.32384" data-glyph-ascender="71.27604000000001" data-glyph-descender="-17.0478" data-kerning="-2.110552342529488"></path><path d="M21.03-38.40Q23.62-41.00 27.11-42.42Q30.60-43.84 34.42-43.84L34.42-43.84Q41.89-43.84 45.62-39.70Q49.36-35.56 49.36-27.76L49.36-27.76L49.36 0L33.20 0L33.20-25.82Q33.20-28.58 31.78-30.24Q30.36-31.90 27.76-31.90L27.76-31.90Q24.76-31.90 22.89-29.96Q21.03-28.01 21.03-25.17L21.03-25.17L21.03 0L4.87 0L4.87-58.86L21.03-58.86L21.03-38.40Z" transform="translate(173.80650765747052 63) " fill="rgb(51, 51, 51)" stroke="rgb(51, 51, 51)" stroke-width="0.135" data-glyph-w="54.14706" data-glyph-h="88.32384" data-glyph-ascender="71.27604000000001" data-glyph-descender="-17.0478" data-kerning="0"></path><path d="M27.03-43.84Q38.32-43.84 44.77-38.11Q51.22-32.39 51.22-21.43L51.22-21.43Q51.22-10.47 44.77-4.75Q38.32 0.97 27.03 0.97L27.03 0.97Q15.75 0.97 9.34-4.71Q2.92-10.39 2.92-21.43L2.92-21.43Q2.92-32.47 9.34-38.15Q15.75-43.84 27.03-43.84L27.03-43.84ZM27.03-32.88Q19.08-32.88 19.08-23.70L19.08-23.70L19.08-19.08Q19.08-9.99 27.03-9.99L27.03-9.99Q35.07-9.99 35.07-19.08L35.07-19.08L35.07-23.70Q35.07-32.88 27.03-32.88L27.03-32.88Z" transform="translate(227.95356765747053 63) " fill="rgb(51, 51, 51)" stroke="rgb(51, 51, 51)" stroke-width="0.135" data-glyph-w="54.14706" data-glyph-h="88.32384" data-glyph-ascender="71.27604000000001" data-glyph-descender="-17.0478" data-kerning="0"></path><path d="M61.78-43.84Q69.08-43.84 72.74-39.66Q76.39-35.48 76.39-27.76L76.39-27.76L76.39 0L60.24 0L60.24-25.82Q60.24-28.58 58.90-30.24Q57.56-31.90 55.12-31.90L55.12-31.90Q52.28-31.90 50.49-29.96Q48.71-28.01 48.71-25.17L48.71-25.17L48.71 0L32.55 0L32.55-25.82Q32.55-28.58 31.21-30.24Q29.87-31.90 27.44-31.90L27.44-31.90Q24.60-31.90 22.81-29.96Q21.03-28.01 21.03-25.17L21.03-25.17L21.03 0L4.87 0L4.87-42.86L18.10-42.86L19.16-36.45Q21.59-39.86 25.61-41.85Q29.63-43.84 34.10-43.84L34.10-43.84Q43.76-43.84 47.08-36.45L47.08-36.45Q49.60-39.86 53.54-41.85Q57.48-43.84 61.78-43.84L61.78-43.84Z" transform="translate(282.1006276574705 63) " fill="rgb(51, 51, 51)" stroke="rgb(51, 51, 51)" stroke-width="0.135" data-glyph-w="81.18" data-glyph-h="88.32384" data-glyph-ascender="71.27604000000001" data-glyph-descender="-17.0478" data-kerning="0"></path><path d="M27.03-43.84Q38.80-43.84 45.01-38.32Q51.22-32.80 51.22-21.43L51.22-21.43L51.22-18.67L19.08-18.67Q19.08-14.04 21.15-11.69Q23.22-9.34 27.68-9.34L27.68-9.34Q31.74-9.34 33.65-11.04Q35.56-12.75 35.56-15.59L35.56-15.59L51.22-15.59Q51.22-7.79 45.30-3.41Q39.37 0.97 28.01 0.97L28.01 0.97Q16.07 0.97 9.50-4.59Q2.92-10.15 2.92-21.43L2.92-21.43Q2.92-32.47 9.34-38.15Q15.75-43.84 27.03-43.84L27.03-43.84ZM27.68-33.53Q20.05-33.53 19.16-26.30L19.16-26.30L34.91-26.30Q34.91-29.63 33.00-31.58Q31.09-33.53 27.68-33.53L27.68-33.53Z" transform="translate(363.2806276574705 63) " fill="rgb(51, 51, 51)" stroke="rgb(51, 51, 51)" stroke-width="0.135" data-glyph-w="54.14706" data-glyph-h="88.32384" data-glyph-ascender="71.27604000000001" data-glyph-descender="-17.0478" data-kerning="0"></path></g></svg>
                </g>
              </g>
    </svg>